<?xml version="1.0" encoding="UTF-8"?>
<svg xmlns="http://www.w3.org/2000/svg" xmlns:xlink="http://www.w3.org/1999/xlink" width="400pt" height="300pt" viewBox="0 0 400 300" version="1.1">
<g id="surface1">
<path style="fill-rule:nonzero;fill:rgb(96.078431%,82.352941%,28.235294%);fill-opacity:1;stroke-width:2;stroke-linecap:butt;stroke-linejoin:miter;stroke:rgb(100%,100%,100%);stroke-opacity:1;stroke-miterlimit:10;" d="M 84 10 L 124 10 L 124 22 L 84 22 Z M 84 10 "/>
<path style=" stroke:none;fill-rule:nonzero;fill:rgb(40%,40%,40%);fill-opacity:1;" d="M 130.886719 20.125 L 130.886719 16.105469 L 134.117188 16.105469 C 134.613281 16.105469 135.007812 16.15625 135.304688 16.253906 C 135.601562 16.355469 135.828125 16.5 135.988281 16.6875 C 136.148438 16.875 136.253906 17.105469 136.304688 17.382812 C 136.359375 17.660156 136.382812 17.972656 136.382812 18.324219 C 136.382812 18.460938 136.386719 18.613281 136.390625 18.785156 C 136.394531 18.957031 136.402344 19.128906 136.414062 19.296875 C 136.425781 19.464844 136.445312 19.621094 136.46875 19.769531 C 136.492188 19.917969 136.523438 20.035156 136.5625 20.125 L 136.828125 20.125 C 136.789062 20.070312 136.757812 19.96875 136.730469 19.824219 C 136.707031 19.679688 136.6875 19.519531 136.671875 19.34375 C 136.65625 19.167969 136.644531 18.992188 136.636719 18.8125 C 136.628906 18.632812 136.625 18.480469 136.625 18.359375 C 136.625 18.015625 136.605469 17.710938 136.5625 17.4375 C 136.523438 17.164062 136.445312 16.929688 136.324219 16.730469 C 136.203125 16.53125 136.03125 16.367188 135.808594 16.242188 C 135.585938 16.117188 135.292969 16.03125 134.933594 15.984375 L 134.933594 15.960938 C 135.53125 15.824219 135.992188 15.566406 136.3125 15.1875 C 136.632812 14.808594 136.785156 14.328125 136.769531 13.753906 C 136.753906 13 136.535156 12.445312 136.121094 12.089844 C 135.703125 11.734375 135.046875 11.558594 134.152344 11.558594 L 130.648438 11.558594 L 130.648438 20.125 Z M 130.886719 15.863281 L 130.886719 11.796875 L 134.210938 11.796875 C 135.027344 11.796875 135.617188 11.96875 135.976562 12.308594 C 136.335938 12.648438 136.519531 13.121094 136.527344 13.730469 C 136.527344 14.105469 136.460938 14.425781 136.324219 14.695312 C 136.1875 14.964844 136.007812 15.183594 135.785156 15.359375 C 135.558594 15.535156 135.300781 15.664062 135.011719 15.746094 C 134.71875 15.824219 134.410156 15.863281 134.09375 15.863281 Z M 137.574219 17.039062 C 137.574219 16.65625 137.628906 16.285156 137.738281 15.925781 C 137.847656 15.566406 138.007812 15.246094 138.222656 14.972656 C 138.441406 14.695312 138.707031 14.472656 139.023438 14.304688 C 139.339844 14.136719 139.703125 14.054688 140.121094 14.054688 C 140.527344 14.054688 140.890625 14.136719 141.207031 14.304688 C 141.523438 14.472656 141.789062 14.695312 142.003906 14.972656 C 142.21875 15.246094 142.382812 15.566406 142.488281 15.925781 C 142.597656 16.285156 142.652344 16.65625 142.652344 17.039062 C 142.652344 17.433594 142.597656 17.808594 142.488281 18.167969 C 142.382812 18.527344 142.21875 18.847656 142.003906 19.121094 C 141.789062 19.398438 141.523438 19.617188 141.207031 19.78125 C 140.890625 19.945312 140.527344 20.027344 140.121094 20.027344 C 139.703125 20.027344 139.339844 19.945312 139.023438 19.78125 C 138.707031 19.617188 138.441406 19.398438 138.222656 19.121094 C 138.007812 18.847656 137.847656 18.527344 137.738281 18.167969 C 137.628906 17.808594 137.574219 17.433594 137.574219 17.039062 Z M 137.335938 17.039062 C 137.335938 17.464844 137.394531 17.871094 137.515625 18.257812 C 137.636719 18.648438 137.8125 18.988281 138.050781 19.285156 C 138.285156 19.582031 138.574219 19.816406 138.921875 19.992188 C 139.265625 20.167969 139.660156 20.257812 140.109375 20.257812 C 140.566406 20.257812 140.964844 20.167969 141.308594 19.992188 C 141.652344 19.816406 141.941406 19.582031 142.179688 19.285156 C 142.414062 18.988281 142.59375 18.648438 142.710938 18.257812 C 142.832031 17.871094 142.890625 17.464844 142.890625 17.039062 C 142.890625 16.617188 142.832031 16.210938 142.710938 15.824219 C 142.589844 15.433594 142.414062 15.09375 142.179688 14.796875 C 141.941406 14.5 141.652344 14.261719 141.308594 14.082031 C 140.964844 13.902344 140.566406 13.8125 140.121094 13.8125 C 139.664062 13.8125 139.265625 13.902344 138.921875 14.082031 C 138.578125 14.261719 138.285156 14.5 138.050781 14.796875 C 137.8125 15.09375 137.636719 15.433594 137.515625 15.824219 C 137.394531 16.210938 137.335938 16.617188 137.335938 17.039062 Z M 148.628906 18.023438 L 148.386719 18.023438 C 148.363281 18.335938 148.289062 18.613281 148.160156 18.859375 C 148.03125 19.101562 147.867188 19.3125 147.660156 19.488281 C 147.457031 19.664062 147.222656 19.800781 146.960938 19.890625 C 146.695312 19.984375 146.410156 20.027344 146.109375 20.027344 C 145.699219 20.027344 145.339844 19.949219 145.027344 19.796875 C 144.714844 19.640625 144.457031 19.429688 144.246094 19.164062 C 144.039062 18.902344 143.882812 18.597656 143.773438 18.253906 C 143.664062 17.910156 143.613281 17.550781 143.613281 17.171875 C 143.613281 16.8125 143.65625 16.445312 143.75 16.074219 C 143.84375 15.703125 143.988281 15.367188 144.195312 15.066406 C 144.398438 14.765625 144.671875 14.523438 145.011719 14.335938 C 145.351562 14.148438 145.765625 14.054688 146.253906 14.054688 C 146.507812 14.054688 146.753906 14.089844 146.984375 14.160156 C 147.214844 14.234375 147.425781 14.34375 147.609375 14.492188 C 147.792969 14.640625 147.949219 14.824219 148.074219 15.042969 C 148.203125 15.261719 148.292969 15.523438 148.339844 15.828125 L 148.578125 15.828125 C 148.539062 15.5 148.449219 15.210938 148.308594 14.960938 C 148.167969 14.707031 147.996094 14.496094 147.789062 14.328125 C 147.582031 14.160156 147.34375 14.03125 147.078125 13.945312 C 146.816406 13.855469 146.539062 13.8125 146.253906 13.8125 C 145.765625 13.8125 145.339844 13.90625 144.972656 14.089844 C 144.609375 14.273438 144.308594 14.519531 144.074219 14.828125 C 143.839844 15.136719 143.660156 15.492188 143.546875 15.894531 C 143.429688 16.300781 143.371094 16.726562 143.371094 17.171875 C 143.371094 17.597656 143.433594 17.996094 143.550781 18.367188 C 143.671875 18.738281 143.847656 19.066406 144.078125 19.34375 C 144.3125 19.625 144.597656 19.847656 144.9375 20.011719 C 145.277344 20.175781 145.667969 20.257812 146.109375 20.257812 C 146.460938 20.257812 146.78125 20.203125 147.074219 20.101562 C 147.367188 19.996094 147.621094 19.847656 147.84375 19.65625 C 148.0625 19.464844 148.238281 19.230469 148.375 18.953125 C 148.511719 18.679688 148.597656 18.367188 148.628906 18.023438 Z M 149.898438 17.796875 L 151.496094 16.476562 L 154.386719 20.125 L 154.710938 20.125 L 151.675781 16.308594 L 154.507812 13.957031 L 154.160156 13.957031 L 149.898438 17.496094 L 149.898438 11.558594 L 149.660156 11.558594 L 149.660156 20.125 L 149.898438 20.125 Z M 162.628906 18.023438 L 162.386719 18.023438 C 162.363281 18.335938 162.289062 18.613281 162.160156 18.859375 C 162.03125 19.101562 161.867188 19.3125 161.660156 19.488281 C 161.457031 19.664062 161.222656 19.800781 160.960938 19.890625 C 160.695312 19.984375 160.410156 20.027344 160.109375 20.027344 C 159.699219 20.027344 159.339844 19.949219 159.027344 19.796875 C 158.714844 19.640625 158.457031 19.429688 158.246094 19.164062 C 158.039062 18.902344 157.882812 18.597656 157.773438 18.253906 C 157.664062 17.910156 157.613281 17.550781 157.613281 17.171875 C 157.613281 16.8125 157.65625 16.445312 157.75 16.074219 C 157.84375 15.703125 157.988281 15.367188 158.195312 15.066406 C 158.398438 14.765625 158.671875 14.523438 159.011719 14.335938 C 159.351562 14.148438 159.765625 14.054688 160.253906 14.054688 C 160.507812 14.054688 160.753906 14.089844 160.984375 14.160156 C 161.214844 14.234375 161.425781 14.34375 161.609375 14.492188 C 161.792969 14.640625 161.949219 14.824219 162.074219 15.042969 C 162.203125 15.261719 162.292969 15.523438 162.339844 15.828125 L 162.578125 15.828125 C 162.539062 15.5 162.449219 15.210938 162.308594 14.960938 C 162.167969 14.707031 161.996094 14.496094 161.789062 14.328125 C 161.582031 14.160156 161.34375 14.03125 161.078125 13.945312 C 160.816406 13.855469 160.539062 13.8125 160.253906 13.8125 C 159.765625 13.8125 159.339844 13.90625 158.972656 14.089844 C 158.609375 14.273438 158.308594 14.519531 158.074219 14.828125 C 157.839844 15.136719 157.660156 15.492188 157.546875 15.894531 C 157.429688 16.300781 157.371094 16.726562 157.371094 17.171875 C 157.371094 17.597656 157.433594 17.996094 157.550781 18.367188 C 157.671875 18.738281 157.847656 19.066406 158.078125 19.34375 C 158.3125 19.625 158.597656 19.847656 158.9375 20.011719 C 159.277344 20.175781 159.667969 20.257812 160.109375 20.257812 C 160.460938 20.257812 160.78125 20.203125 161.074219 20.101562 C 161.367188 19.996094 161.621094 19.847656 161.84375 19.65625 C 162.0625 19.464844 162.238281 19.230469 162.375 18.953125 C 162.511719 18.679688 162.597656 18.367188 162.628906 18.023438 Z M 163.660156 11.558594 L 163.660156 20.125 L 163.898438 20.125 L 163.898438 11.558594 Z M 165.898438 12.769531 L 165.898438 11.558594 L 165.660156 11.558594 L 165.660156 12.769531 Z M 165.898438 20.125 L 165.898438 13.957031 L 165.660156 13.957031 L 165.660156 20.125 Z M 167.660156 13.957031 L 167.660156 20.125 L 167.898438 20.125 L 167.898438 16.632812 C 167.898438 16.289062 167.945312 15.960938 168.039062 15.648438 C 168.128906 15.335938 168.261719 15.0625 168.433594 14.828125 C 168.605469 14.589844 168.816406 14.402344 169.0625 14.261719 C 169.3125 14.121094 169.589844 14.054688 169.890625 14.054688 C 170.234375 14.054688 170.515625 14.109375 170.730469 14.222656 C 170.949219 14.332031 171.117188 14.484375 171.234375 14.675781 C 171.355469 14.867188 171.4375 15.09375 171.480469 15.347656 C 171.527344 15.605469 171.546875 15.878906 171.546875 16.164062 L 171.546875 20.125 L 171.789062 20.125 L 171.789062 16.214844 C 171.789062 15.925781 171.832031 15.652344 171.921875 15.390625 C 172.007812 15.132812 172.136719 14.902344 172.304688 14.699219 C 172.472656 14.5 172.675781 14.34375 172.914062 14.226562 C 173.15625 14.109375 173.425781 14.054688 173.71875 14.054688 C 174.054688 14.054688 174.335938 14.101562 174.554688 14.195312 C 174.773438 14.292969 174.949219 14.429688 175.082031 14.605469 C 175.214844 14.78125 175.304688 14.992188 175.359375 15.242188 C 175.410156 15.488281 175.4375 15.765625 175.4375 16.070312 L 175.4375 20.125 L 175.675781 20.125 L 175.675781 16.070312 C 175.675781 15.734375 175.644531 15.425781 175.578125 15.152344 C 175.515625 14.875 175.40625 14.640625 175.257812 14.441406 C 175.105469 14.246094 174.902344 14.09375 174.65625 13.980469 C 174.40625 13.867188 174.097656 13.8125 173.71875 13.8125 C 173.238281 13.8125 172.824219 13.945312 172.472656 14.210938 C 172.121094 14.472656 171.882812 14.820312 171.765625 15.253906 L 171.738281 15.253906 C 171.636719 14.796875 171.421875 14.4375 171.097656 14.179688 C 170.773438 13.917969 170.371094 13.796875 169.890625 13.8125 C 169.652344 13.8125 169.425781 13.855469 169.214844 13.9375 C 169.003906 14.023438 168.808594 14.140625 168.632812 14.292969 C 168.457031 14.445312 168.308594 14.621094 168.1875 14.820312 C 168.066406 15.019531 167.980469 15.242188 167.925781 15.480469 L 167.898438 15.480469 L 167.898438 13.957031 Z M 176.898438 15.683594 L 176.898438 11.558594 L 176.660156 11.558594 L 176.660156 20.125 L 176.898438 20.125 L 176.898438 18.398438 L 176.925781 18.398438 C 177.085938 18.949219 177.378906 19.398438 177.804688 19.742188 C 178.234375 20.085938 178.765625 20.257812 179.394531 20.257812 C 179.804688 20.257812 180.171875 20.175781 180.492188 20.015625 C 180.816406 19.855469 181.09375 19.636719 181.320312 19.351562 C 181.550781 19.066406 181.722656 18.730469 181.84375 18.335938 C 181.964844 17.945312 182.023438 17.515625 182.023438 17.054688 C 182.023438 16.621094 181.964844 16.210938 181.851562 15.816406 C 181.734375 15.425781 181.566406 15.082031 181.347656 14.785156 C 181.125 14.488281 180.851562 14.253906 180.523438 14.078125 C 180.195312 13.902344 179.820312 13.8125 179.394531 13.8125 C 178.738281 13.8125 178.199219 13.984375 177.777344 14.328125 C 177.351562 14.671875 177.066406 15.125 176.925781 15.683594 Z M 176.898438 17.054688 C 176.898438 16.085938 177.128906 15.34375 177.585938 14.828125 C 178.039062 14.3125 178.644531 14.054688 179.394531 14.054688 C 179.820312 14.054688 180.183594 14.144531 180.480469 14.324219 C 180.78125 14.503906 181.027344 14.734375 181.21875 15.019531 C 181.410156 15.304688 181.554688 15.621094 181.644531 15.980469 C 181.738281 16.335938 181.785156 16.691406 181.785156 17.054688 C 181.785156 17.445312 181.734375 17.820312 181.632812 18.179688 C 181.535156 18.539062 181.386719 18.859375 181.191406 19.136719 C 180.996094 19.410156 180.746094 19.628906 180.445312 19.789062 C 180.144531 19.949219 179.796875 20.027344 179.394531 20.027344 C 179.003906 20.027344 178.652344 19.949219 178.339844 19.789062 C 178.027344 19.628906 177.765625 19.414062 177.554688 19.140625 C 177.34375 18.867188 177.179688 18.554688 177.066406 18.191406 C 176.957031 17.832031 176.898438 17.453125 176.898438 17.054688 Z M 182.898438 12.769531 L 182.898438 11.558594 L 182.660156 11.558594 L 182.660156 12.769531 Z M 182.898438 20.125 L 182.898438 13.957031 L 182.660156 13.957031 L 182.660156 20.125 Z M 184.660156 13.957031 L 184.660156 20.125 L 184.898438 20.125 L 184.898438 16.632812 C 184.898438 16.289062 184.949219 15.960938 185.042969 15.648438 C 185.140625 15.335938 185.28125 15.0625 185.46875 14.828125 C 185.65625 14.589844 185.890625 14.402344 186.171875 14.261719 C 186.453125 14.121094 186.777344 14.054688 187.144531 14.054688 C 187.40625 14.054688 187.65625 14.089844 187.894531 14.167969 C 188.128906 14.242188 188.339844 14.363281 188.519531 14.527344 C 188.699219 14.691406 188.839844 14.898438 188.945312 15.152344 C 189.046875 15.402344 189.101562 15.710938 189.101562 16.070312 L 189.101562 20.125 L 189.339844 20.125 L 189.339844 16.03125 C 189.339844 15.671875 189.285156 15.355469 189.179688 15.078125 C 189.070312 14.800781 188.917969 14.570312 188.722656 14.382812 C 188.527344 14.195312 188.292969 14.054688 188.027344 13.957031 C 187.757812 13.859375 187.464844 13.8125 187.144531 13.8125 C 186.839844 13.8125 186.5625 13.855469 186.316406 13.9375 C 186.066406 14.023438 185.851562 14.140625 185.660156 14.292969 C 185.472656 14.445312 185.316406 14.621094 185.195312 14.820312 C 185.070312 15.019531 184.980469 15.242188 184.925781 15.480469 L 184.898438 15.480469 L 184.898438 13.957031 Z M 195.351562 18.0625 L 195.351562 19.921875 C 195.351562 20.6875 195.148438 21.25 194.746094 21.605469 C 194.34375 21.960938 193.765625 22.140625 193.011719 22.140625 C 192.738281 22.140625 192.476562 22.109375 192.226562 22.046875 C 191.972656 21.980469 191.753906 21.882812 191.558594 21.746094 C 191.367188 21.609375 191.214844 21.433594 191.097656 21.21875 C 190.980469 21 190.921875 20.742188 190.910156 20.4375 L 190.671875 20.4375 C 190.679688 20.789062 190.746094 21.085938 190.875 21.332031 C 191.003906 21.574219 191.175781 21.773438 191.390625 21.929688 C 191.609375 22.085938 191.855469 22.199219 192.136719 22.273438 C 192.417969 22.34375 192.710938 22.382812 193.023438 22.382812 C 193.839844 22.382812 194.472656 22.183594 194.921875 21.785156 C 195.367188 21.390625 195.59375 20.769531 195.59375 19.921875 L 195.59375 13.957031 L 195.351562 13.957031 L 195.351562 15.601562 L 195.328125 15.601562 C 195.265625 15.34375 195.160156 15.109375 195.023438 14.894531 C 194.882812 14.675781 194.710938 14.488281 194.507812 14.328125 C 194.300781 14.167969 194.070312 14.042969 193.816406 13.949219 C 193.558594 13.859375 193.285156 13.8125 192.988281 13.8125 C 192.554688 13.8125 192.175781 13.894531 191.84375 14.054688 C 191.511719 14.214844 191.230469 14.429688 191.007812 14.707031 C 190.785156 14.984375 190.617188 15.304688 190.503906 15.667969 C 190.390625 16.03125 190.335938 16.421875 190.335938 16.835938 C 190.335938 17.230469 190.390625 17.605469 190.496094 17.964844 C 190.605469 18.324219 190.765625 18.640625 190.976562 18.90625 C 191.191406 19.175781 191.457031 19.390625 191.777344 19.550781 C 192.097656 19.710938 192.472656 19.789062 192.902344 19.789062 C 193.167969 19.789062 193.429688 19.75 193.691406 19.675781 C 193.949219 19.597656 194.191406 19.488281 194.410156 19.339844 C 194.628906 19.191406 194.820312 19.007812 194.984375 18.792969 C 195.148438 18.578125 195.265625 18.332031 195.328125 18.0625 Z M 195.339844 16.835938 C 195.339844 17.203125 195.285156 17.554688 195.179688 17.886719 C 195.070312 18.21875 194.914062 18.507812 194.710938 18.75 C 194.507812 18.996094 194.253906 19.1875 193.949219 19.332031 C 193.644531 19.476562 193.292969 19.550781 192.890625 19.550781 C 192.515625 19.550781 192.183594 19.480469 191.894531 19.339844 C 191.609375 19.199219 191.367188 19.007812 191.171875 18.761719 C 190.976562 18.519531 190.824219 18.234375 190.726562 17.90625 C 190.625 17.578125 190.574219 17.222656 190.574219 16.835938 C 190.574219 16.460938 190.625 16.105469 190.726562 15.769531 C 190.828125 15.433594 190.976562 15.136719 191.183594 14.882812 C 191.386719 14.625 191.636719 14.421875 191.9375 14.273438 C 192.238281 14.125 192.589844 14.054688 192.988281 14.054688 C 193.371094 14.054688 193.710938 14.132812 194.007812 14.285156 C 194.304688 14.441406 194.550781 14.652344 194.746094 14.910156 C 194.941406 15.171875 195.089844 15.46875 195.191406 15.804688 C 195.289062 16.140625 195.339844 16.484375 195.339844 16.835938 Z M 130 8.125 "/>
<path style="fill-rule:nonzero;fill:rgb(89.019608%,54.509804%,51.764706%);fill-opacity:1;stroke-width:2;stroke-linecap:butt;stroke-linejoin:miter;stroke:rgb(100%,100%,100%);stroke-opacity:1;stroke-miterlimit:10;" d="M 221 10 L 261 10 L 261 22 L 221 22 Z M 221 10 "/>
<path style=" stroke:none;fill-rule:nonzero;fill:rgb(40%,40%,40%);fill-opacity:1;" d="M 274.945312 16.765625 L 274.703125 16.765625 C 274.640625 17.238281 274.515625 17.675781 274.332031 18.085938 C 274.148438 18.492188 273.90625 18.84375 273.613281 19.140625 C 273.316406 19.4375 272.964844 19.667969 272.554688 19.835938 C 272.148438 20.003906 271.6875 20.089844 271.175781 20.089844 C 270.601562 20.089844 270.085938 19.972656 269.632812 19.742188 C 269.179688 19.507812 268.800781 19.199219 268.488281 18.816406 C 268.175781 18.433594 267.941406 17.988281 267.78125 17.484375 C 267.621094 16.980469 267.539062 16.457031 267.539062 15.914062 C 267.539062 15.464844 267.605469 14.988281 267.738281 14.484375 C 267.871094 13.980469 268.085938 13.515625 268.378906 13.085938 C 268.675781 12.660156 269.066406 12.304688 269.550781 12.019531 C 270.035156 11.734375 270.628906 11.59375 271.332031 11.59375 C 271.796875 11.59375 272.21875 11.667969 272.597656 11.816406 C 272.976562 11.964844 273.304688 12.15625 273.582031 12.398438 C 273.859375 12.636719 274.074219 12.90625 274.234375 13.207031 C 274.394531 13.507812 274.488281 13.8125 274.511719 14.125 L 274.753906 14.125 C 274.746094 13.859375 274.667969 13.570312 274.523438 13.25 C 274.378906 12.929688 274.164062 12.628906 273.882812 12.34375 C 273.597656 12.058594 273.242188 11.824219 272.820312 11.636719 C 272.394531 11.449219 271.898438 11.351562 271.332031 11.351562 C 270.605469 11.351562 269.984375 11.492188 269.472656 11.773438 C 268.960938 12.054688 268.542969 12.414062 268.222656 12.851562 C 267.902344 13.292969 267.671875 13.78125 267.523438 14.324219 C 267.375 14.863281 267.300781 15.394531 267.300781 15.914062 C 267.300781 16.554688 267.394531 17.144531 267.589844 17.683594 C 267.78125 18.222656 268.046875 18.6875 268.386719 19.074219 C 268.726562 19.460938 269.132812 19.765625 269.609375 19.988281 C 270.085938 20.207031 270.609375 20.316406 271.175781 20.316406 C 271.71875 20.316406 272.207031 20.230469 272.640625 20.054688 C 273.070312 19.878906 273.445312 19.632812 273.761719 19.320312 C 274.078125 19.007812 274.335938 18.636719 274.535156 18.199219 C 274.734375 17.761719 274.871094 17.285156 274.945312 16.765625 Z M 275.574219 17.039062 C 275.574219 16.65625 275.628906 16.285156 275.738281 15.925781 C 275.847656 15.566406 276.007812 15.246094 276.222656 14.972656 C 276.441406 14.695312 276.707031 14.472656 277.023438 14.304688 C 277.339844 14.136719 277.703125 14.054688 278.121094 14.054688 C 278.527344 14.054688 278.890625 14.136719 279.207031 14.304688 C 279.523438 14.472656 279.789062 14.695312 280.003906 14.972656 C 280.21875 15.246094 280.382812 15.566406 280.488281 15.925781 C 280.597656 16.285156 280.652344 16.65625 280.652344 17.039062 C 280.652344 17.433594 280.597656 17.808594 280.488281 18.167969 C 280.382812 18.527344 280.21875 18.847656 280.003906 19.121094 C 279.789062 19.398438 279.523438 19.617188 279.207031 19.78125 C 278.890625 19.945312 278.527344 20.027344 278.121094 20.027344 C 277.703125 20.027344 277.339844 19.945312 277.023438 19.78125 C 276.707031 19.617188 276.441406 19.398438 276.222656 19.121094 C 276.007812 18.847656 275.847656 18.527344 275.738281 18.167969 C 275.628906 17.808594 275.574219 17.433594 275.574219 17.039062 Z M 275.335938 17.039062 C 275.335938 17.464844 275.394531 17.871094 275.515625 18.257812 C 275.636719 18.648438 275.8125 18.988281 276.050781 19.285156 C 276.285156 19.582031 276.574219 19.816406 276.921875 19.992188 C 277.265625 20.167969 277.660156 20.257812 278.109375 20.257812 C 278.566406 20.257812 278.964844 20.167969 279.308594 19.992188 C 279.652344 19.816406 279.941406 19.582031 280.179688 19.285156 C 280.414062 18.988281 280.59375 18.648438 280.710938 18.257812 C 280.832031 17.871094 280.890625 17.464844 280.890625 17.039062 C 280.890625 16.617188 280.832031 16.210938 280.710938 15.824219 C 280.589844 15.433594 280.414062 15.09375 280.179688 14.796875 C 279.941406 14.5 279.652344 14.261719 279.308594 14.082031 C 278.964844 13.902344 278.566406 13.8125 278.121094 13.8125 C 277.664062 13.8125 277.265625 13.902344 276.921875 14.082031 C 276.578125 14.261719 276.285156 14.5 276.050781 14.796875 C 275.8125 15.09375 275.636719 15.433594 275.515625 15.824219 C 275.394531 16.210938 275.335938 16.617188 275.335938 17.039062 Z M 286.460938 11.558594 L 286.460938 15.683594 L 286.4375 15.683594 C 286.292969 15.125 286.007812 14.671875 285.585938 14.328125 C 285.160156 13.984375 284.621094 13.8125 283.964844 13.8125 C 283.539062 13.8125 283.164062 13.902344 282.835938 14.078125 C 282.507812 14.253906 282.234375 14.488281 282.015625 14.785156 C 281.792969 15.082031 281.625 15.425781 281.511719 15.816406 C 281.394531 16.207031 281.335938 16.621094 281.335938 17.054688 C 281.335938 17.515625 281.394531 17.945312 281.515625 18.335938 C 281.636719 18.730469 281.808594 19.066406 282.039062 19.351562 C 282.265625 19.636719 282.542969 19.855469 282.867188 20.015625 C 283.191406 20.175781 283.554688 20.257812 283.964844 20.257812 C 284.597656 20.257812 285.125 20.085938 285.554688 19.742188 C 285.980469 19.398438 286.277344 18.949219 286.4375 18.398438 L 286.460938 18.398438 L 286.460938 20.125 L 286.699219 20.125 L 286.699219 11.558594 Z M 286.460938 17.054688 C 286.460938 17.453125 286.402344 17.832031 286.292969 18.191406 C 286.179688 18.550781 286.019531 18.867188 285.804688 19.140625 C 285.59375 19.414062 285.335938 19.628906 285.027344 19.789062 C 284.71875 19.949219 284.363281 20.027344 283.964844 20.027344 C 283.5625 20.027344 283.214844 19.949219 282.914062 19.789062 C 282.613281 19.628906 282.367188 19.410156 282.171875 19.136719 C 281.976562 18.859375 281.824219 18.539062 281.726562 18.179688 C 281.625 17.820312 281.574219 17.445312 281.574219 17.054688 C 281.574219 16.695312 281.621094 16.335938 281.714844 15.980469 C 281.804688 15.625 281.949219 15.304688 282.140625 15.019531 C 282.332031 14.734375 282.578125 14.503906 282.882812 14.324219 C 283.1875 14.144531 283.546875 14.054688 283.964844 14.054688 C 284.714844 14.054688 285.320312 14.3125 285.777344 14.828125 C 286.234375 15.34375 286.460938 16.085938 286.460938 17.054688 Z M 287.898438 12.769531 L 287.898438 11.558594 L 287.660156 11.558594 L 287.660156 12.769531 Z M 287.898438 20.125 L 287.898438 13.957031 L 287.660156 13.957031 L 287.660156 20.125 Z M 289.660156 13.957031 L 289.660156 20.125 L 289.898438 20.125 L 289.898438 16.632812 C 289.898438 16.289062 289.949219 15.960938 290.042969 15.648438 C 290.140625 15.335938 290.28125 15.0625 290.46875 14.828125 C 290.65625 14.589844 290.890625 14.402344 291.171875 14.261719 C 291.453125 14.121094 291.777344 14.054688 292.144531 14.054688 C 292.40625 14.054688 292.65625 14.089844 292.894531 14.167969 C 293.128906 14.242188 293.339844 14.363281 293.519531 14.527344 C 293.699219 14.691406 293.839844 14.898438 293.945312 15.152344 C 294.046875 15.402344 294.101562 15.710938 294.101562 16.070312 L 294.101562 20.125 L 294.339844 20.125 L 294.339844 16.03125 C 294.339844 15.671875 294.285156 15.355469 294.179688 15.078125 C 294.070312 14.800781 293.917969 14.570312 293.722656 14.382812 C 293.527344 14.195312 293.292969 14.054688 293.027344 13.957031 C 292.757812 13.859375 292.464844 13.8125 292.144531 13.8125 C 291.839844 13.8125 291.5625 13.855469 291.316406 13.9375 C 291.066406 14.023438 290.851562 14.140625 290.660156 14.292969 C 290.472656 14.445312 290.316406 14.621094 290.195312 14.820312 C 290.070312 15.019531 289.980469 15.242188 289.925781 15.480469 L 289.898438 15.480469 L 289.898438 13.957031 Z M 300.351562 18.0625 L 300.351562 19.921875 C 300.351562 20.6875 300.148438 21.25 299.746094 21.605469 C 299.34375 21.960938 298.765625 22.140625 298.011719 22.140625 C 297.738281 22.140625 297.476562 22.109375 297.226562 22.046875 C 296.972656 21.980469 296.753906 21.882812 296.558594 21.746094 C 296.367188 21.609375 296.214844 21.433594 296.097656 21.21875 C 295.980469 21 295.921875 20.742188 295.910156 20.4375 L 295.671875 20.4375 C 295.679688 20.789062 295.746094 21.085938 295.875 21.332031 C 296.003906 21.574219 296.175781 21.773438 296.390625 21.929688 C 296.609375 22.085938 296.855469 22.199219 297.136719 22.273438 C 297.417969 22.34375 297.710938 22.382812 298.023438 22.382812 C 298.839844 22.382812 299.472656 22.183594 299.921875 21.785156 C 300.367188 21.390625 300.59375 20.769531 300.59375 19.921875 L 300.59375 13.957031 L 300.351562 13.957031 L 300.351562 15.601562 L 300.328125 15.601562 C 300.265625 15.34375 300.160156 15.109375 300.023438 14.894531 C 299.882812 14.675781 299.710938 14.488281 299.507812 14.328125 C 299.300781 14.167969 299.070312 14.042969 298.816406 13.949219 C 298.558594 13.859375 298.285156 13.8125 297.988281 13.8125 C 297.554688 13.8125 297.175781 13.894531 296.84375 14.054688 C 296.511719 14.214844 296.230469 14.429688 296.007812 14.707031 C 295.785156 14.984375 295.617188 15.304688 295.503906 15.667969 C 295.390625 16.03125 295.335938 16.421875 295.335938 16.835938 C 295.335938 17.230469 295.390625 17.605469 295.496094 17.964844 C 295.605469 18.324219 295.765625 18.640625 295.976562 18.90625 C 296.191406 19.175781 296.457031 19.390625 296.777344 19.550781 C 297.097656 19.710938 297.472656 19.789062 297.902344 19.789062 C 298.167969 19.789062 298.429688 19.75 298.691406 19.675781 C 298.949219 19.597656 299.191406 19.488281 299.410156 19.339844 C 299.628906 19.191406 299.820312 19.007812 299.984375 18.792969 C 300.148438 18.578125 300.265625 18.332031 300.328125 18.0625 Z M 300.339844 16.835938 C 300.339844 17.203125 300.285156 17.554688 300.179688 17.886719 C 300.070312 18.21875 299.914062 18.507812 299.710938 18.75 C 299.507812 18.996094 299.253906 19.1875 298.949219 19.332031 C 298.644531 19.476562 298.292969 19.550781 297.890625 19.550781 C 297.515625 19.550781 297.183594 19.480469 296.894531 19.339844 C 296.609375 19.199219 296.367188 19.007812 296.171875 18.761719 C 295.976562 18.519531 295.824219 18.234375 295.726562 17.90625 C 295.625 17.578125 295.574219 17.222656 295.574219 16.835938 C 295.574219 16.460938 295.625 16.105469 295.726562 15.769531 C 295.828125 15.433594 295.976562 15.136719 296.183594 14.882812 C 296.386719 14.625 296.636719 14.421875 296.9375 14.273438 C 297.238281 14.125 297.589844 14.054688 297.988281 14.054688 C 298.371094 14.054688 298.710938 14.132812 299.007812 14.285156 C 299.304688 14.441406 299.550781 14.652344 299.746094 14.910156 C 299.941406 15.171875 300.089844 15.46875 300.191406 15.804688 C 300.289062 16.140625 300.339844 16.484375 300.339844 16.835938 Z M 267 8.125 "/>
<path style="fill-rule:nonzero;fill:rgb(12.54902%,36.862745%,44.313725%);fill-opacity:1;stroke-width:2;stroke-linecap:butt;stroke-linejoin:miter;stroke:rgb(100%,100%,100%);stroke-opacity:1;stroke-miterlimit:10;" d="M 44 32 L 84 32 L 84 44 L 44 44 Z M 44 32 "/>
<path style=" stroke:none;fill-rule:nonzero;fill:rgb(40%,40%,40%);fill-opacity:1;" d="M 90.886719 41.886719 L 90.886719 33.796875 L 93.589844 33.796875 C 94.019531 33.796875 94.441406 33.855469 94.855469 33.976562 C 95.265625 34.097656 95.636719 34.3125 95.964844 34.617188 C 96.292969 34.925781 96.554688 35.339844 96.757812 35.859375 C 96.957031 36.378906 97.054688 37.039062 97.054688 37.839844 C 97.054688 38.527344 96.957031 39.128906 96.761719 39.636719 C 96.566406 40.144531 96.296875 40.5625 95.957031 40.894531 C 95.617188 41.226562 95.222656 41.476562 94.769531 41.640625 C 94.316406 41.804688 93.839844 41.886719 93.335938 41.886719 Z M 90.648438 33.558594 L 90.648438 42.125 L 93.277344 42.125 C 93.796875 42.125 94.296875 42.046875 94.777344 41.886719 C 95.257812 41.726562 95.683594 41.476562 96.058594 41.136719 C 96.433594 40.796875 96.734375 40.351562 96.960938 39.808594 C 97.183594 39.265625 97.296875 38.609375 97.296875 37.839844 C 97.296875 37 97.1875 36.304688 96.964844 35.753906 C 96.746094 35.203125 96.460938 34.761719 96.113281 34.4375 C 95.765625 34.113281 95.375 33.886719 94.9375 33.753906 C 94.5 33.621094 94.070312 33.558594 93.648438 33.558594 Z M 98.898438 34.769531 L 98.898438 33.558594 L 98.660156 33.558594 L 98.660156 34.769531 Z M 98.898438 42.125 L 98.898438 35.957031 L 98.660156 35.957031 L 98.660156 42.125 Z M 100.660156 35.957031 L 100.660156 42.125 L 100.898438 42.125 L 100.898438 38.632812 C 100.898438 38.289062 100.949219 37.960938 101.042969 37.648438 C 101.140625 37.335938 101.28125 37.0625 101.46875 36.828125 C 101.65625 36.589844 101.890625 36.402344 102.171875 36.261719 C 102.453125 36.121094 102.777344 36.054688 103.144531 36.054688 C 103.40625 36.054688 103.65625 36.089844 103.894531 36.167969 C 104.128906 36.242188 104.339844 36.363281 104.519531 36.527344 C 104.699219 36.691406 104.839844 36.898438 104.945312 37.152344 C 105.046875 37.402344 105.101562 37.710938 105.101562 38.070312 L 105.101562 42.125 L 105.339844 42.125 L 105.339844 38.03125 C 105.339844 37.671875 105.285156 37.355469 105.179688 37.078125 C 105.070312 36.800781 104.917969 36.570312 104.722656 36.382812 C 104.527344 36.195312 104.292969 36.054688 104.027344 35.957031 C 103.757812 35.859375 103.464844 35.8125 103.144531 35.8125 C 102.839844 35.8125 102.5625 35.855469 102.316406 35.9375 C 102.066406 36.023438 101.851562 36.140625 101.660156 36.292969 C 101.472656 36.445312 101.316406 36.621094 101.195312 36.820312 C 101.070312 37.019531 100.980469 37.242188 100.925781 37.480469 L 100.898438 37.480469 L 100.898438 35.957031 Z M 106.660156 35.957031 L 106.660156 42.125 L 106.898438 42.125 L 106.898438 38.632812 C 106.898438 38.289062 106.949219 37.960938 107.042969 37.648438 C 107.140625 37.335938 107.28125 37.0625 107.46875 36.828125 C 107.65625 36.589844 107.890625 36.402344 108.171875 36.261719 C 108.453125 36.121094 108.777344 36.054688 109.144531 36.054688 C 109.40625 36.054688 109.65625 36.089844 109.894531 36.167969 C 110.128906 36.242188 110.339844 36.363281 110.519531 36.527344 C 110.699219 36.691406 110.839844 36.898438 110.945312 37.152344 C 111.046875 37.402344 111.101562 37.710938 111.101562 38.070312 L 111.101562 42.125 L 111.339844 42.125 L 111.339844 38.03125 C 111.339844 37.671875 111.285156 37.355469 111.179688 37.078125 C 111.070312 36.800781 110.917969 36.570312 110.722656 36.382812 C 110.527344 36.195312 110.292969 36.054688 110.027344 35.957031 C 109.757812 35.859375 109.464844 35.8125 109.144531 35.8125 C 108.839844 35.8125 108.5625 35.855469 108.316406 35.9375 C 108.066406 36.023438 107.851562 36.140625 107.660156 36.292969 C 107.472656 36.445312 107.316406 36.621094 107.195312 36.820312 C 107.070312 37.019531 106.980469 37.242188 106.925781 37.480469 L 106.898438 37.480469 L 106.898438 35.957031 Z M 112.539062 39.089844 L 117.699219 39.089844 C 117.714844 38.664062 117.675781 38.257812 117.574219 37.863281 C 117.472656 37.472656 117.3125 37.125 117.09375 36.820312 C 116.875 36.515625 116.589844 36.273438 116.242188 36.089844 C 115.894531 35.90625 115.480469 35.8125 115 35.8125 C 114.65625 35.8125 114.320312 35.886719 113.992188 36.027344 C 113.664062 36.171875 113.375 36.382812 113.128906 36.660156 C 112.878906 36.933594 112.679688 37.273438 112.527344 37.671875 C 112.375 38.074219 112.300781 38.527344 112.300781 39.039062 C 112.300781 39.496094 112.351562 39.921875 112.457031 40.320312 C 112.558594 40.714844 112.71875 41.058594 112.9375 41.351562 C 113.152344 41.644531 113.429688 41.867188 113.769531 42.027344 C 114.109375 42.1875 114.519531 42.265625 115 42.257812 C 115.703125 42.257812 116.296875 42.058594 116.777344 41.664062 C 117.257812 41.265625 117.539062 40.710938 117.628906 39.988281 L 117.386719 39.988281 C 117.285156 40.667969 117.019531 41.179688 116.589844 41.519531 C 116.160156 41.859375 115.625 42.027344 114.976562 42.027344 C 114.535156 42.027344 114.164062 41.953125 113.859375 41.800781 C 113.554688 41.648438 113.308594 41.441406 113.117188 41.175781 C 112.925781 40.914062 112.78125 40.601562 112.691406 40.246094 C 112.597656 39.890625 112.546875 39.503906 112.539062 39.089844 Z M 117.460938 38.847656 L 112.539062 38.847656 C 112.5625 38.417969 112.644531 38.027344 112.78125 37.683594 C 112.917969 37.339844 113.09375 37.046875 113.3125 36.804688 C 113.535156 36.558594 113.789062 36.371094 114.082031 36.246094 C 114.375 36.117188 114.6875 36.054688 115.023438 36.054688 C 115.421875 36.054688 115.777344 36.128906 116.078125 36.273438 C 116.382812 36.421875 116.636719 36.625 116.84375 36.882812 C 117.046875 37.136719 117.199219 37.433594 117.304688 37.773438 C 117.410156 38.113281 117.460938 38.472656 117.460938 38.847656 Z M 118.898438 42.125 L 118.898438 38.632812 C 118.898438 38.296875 118.949219 37.96875 119.042969 37.648438 C 119.140625 37.328125 119.289062 37.046875 119.488281 36.804688 C 119.6875 36.558594 119.941406 36.367188 120.25 36.226562 C 120.558594 36.085938 120.925781 36.027344 121.347656 36.054688 L 121.347656 35.8125 C 120.980469 35.804688 120.65625 35.84375 120.382812 35.933594 C 120.105469 36.019531 119.867188 36.140625 119.667969 36.292969 C 119.46875 36.445312 119.308594 36.621094 119.1875 36.828125 C 119.066406 37.03125 118.980469 37.25 118.925781 37.480469 L 118.898438 37.480469 L 118.898438 35.957031 L 118.660156 35.957031 L 118.660156 42.125 Z M 132.074219 35.957031 L 130.203125 41.886719 L 130.179688 41.886719 L 128.285156 35.957031 L 127.910156 35.957031 L 126.003906 41.886719 L 125.980469 41.886719 L 124.144531 35.957031 L 123.914062 35.957031 L 125.824219 42.125 L 126.160156 42.125 L 128.09375 36.195312 L 128.117188 36.195312 L 130.035156 42.125 L 130.347656 42.125 L 132.316406 35.957031 Z M 132.898438 34.769531 L 132.898438 33.558594 L 132.660156 33.558594 L 132.660156 34.769531 Z M 132.898438 42.125 L 132.898438 35.957031 L 132.660156 35.957031 L 132.660156 42.125 Z M 135.320312 36.195312 L 136.710938 36.195312 L 136.710938 35.957031 L 135.320312 35.957031 L 135.320312 34.011719 L 135.078125 34.011719 L 135.078125 35.957031 L 133.953125 35.957031 L 133.953125 36.195312 L 135.078125 36.195312 L 135.078125 40.972656 C 135.078125 41.414062 135.179688 41.714844 135.375 41.878906 C 135.570312 42.042969 135.808594 42.125 136.089844 42.125 C 136.273438 42.125 136.398438 42.121094 136.464844 42.113281 C 136.535156 42.105469 136.605469 42.097656 136.675781 42.089844 L 136.675781 41.847656 C 136.636719 41.863281 136.566406 41.875 136.472656 41.878906 C 136.375 41.882812 136.269531 41.886719 136.148438 41.886719 C 136.050781 41.886719 135.957031 41.878906 135.859375 41.867188 C 135.765625 41.855469 135.675781 41.816406 135.597656 41.753906 C 135.515625 41.6875 135.449219 41.59375 135.398438 41.464844 C 135.347656 41.335938 135.320312 41.15625 135.320312 40.925781 Z M 137.660156 33.558594 L 137.660156 42.125 L 137.898438 42.125 L 137.898438 38.632812 C 137.898438 38.289062 137.949219 37.960938 138.042969 37.648438 C 138.140625 37.335938 138.28125 37.0625 138.46875 36.828125 C 138.65625 36.589844 138.890625 36.402344 139.171875 36.261719 C 139.453125 36.121094 139.777344 36.054688 140.144531 36.054688 C 140.40625 36.054688 140.65625 36.089844 140.894531 36.167969 C 141.128906 36.242188 141.339844 36.363281 141.519531 36.527344 C 141.699219 36.691406 141.839844 36.898438 141.945312 37.152344 C 142.046875 37.402344 142.101562 37.710938 142.101562 38.070312 L 142.101562 42.125 L 142.339844 42.125 L 142.339844 38.03125 C 142.339844 37.671875 142.285156 37.355469 142.179688 37.078125 C 142.070312 36.800781 141.917969 36.570312 141.722656 36.382812 C 141.527344 36.195312 141.292969 36.054688 141.027344 35.957031 C 140.757812 35.859375 140.464844 35.8125 140.144531 35.8125 C 139.839844 35.8125 139.5625 35.855469 139.316406 35.9375 C 139.066406 36.023438 138.851562 36.140625 138.660156 36.292969 C 138.472656 36.445312 138.316406 36.621094 138.195312 36.820312 C 138.070312 37.019531 137.980469 37.242188 137.925781 37.480469 L 137.898438 37.480469 L 137.898438 33.558594 Z M 146 36.195312 L 147.042969 36.195312 L 147.042969 42.125 L 147.285156 42.125 L 147.285156 36.195312 L 148.617188 36.195312 L 148.617188 35.957031 L 147.285156 35.957031 L 147.285156 34.671875 C 147.285156 34.367188 147.34375 34.148438 147.457031 34.007812 C 147.574219 33.867188 147.824219 33.796875 148.207031 33.796875 C 148.296875 33.796875 148.382812 33.800781 148.472656 33.808594 C 148.558594 33.816406 148.660156 33.828125 148.773438 33.84375 L 148.773438 33.605469 C 148.707031 33.597656 148.632812 33.585938 148.550781 33.574219 C 148.464844 33.5625 148.367188 33.558594 148.257812 33.558594 C 148.128906 33.558594 147.992188 33.566406 147.847656 33.582031 C 147.703125 33.597656 147.570312 33.640625 147.453125 33.707031 C 147.332031 33.773438 147.234375 33.878906 147.15625 34.011719 C 147.082031 34.148438 147.042969 34.339844 147.042969 34.589844 L 147.042969 35.957031 L 146 35.957031 Z M 148.898438 42.125 L 148.898438 38.632812 C 148.898438 38.296875 148.949219 37.96875 149.042969 37.648438 C 149.140625 37.328125 149.289062 37.046875 149.488281 36.804688 C 149.6875 36.558594 149.941406 36.367188 150.25 36.226562 C 150.558594 36.085938 150.925781 36.027344 151.347656 36.054688 L 151.347656 35.8125 C 150.980469 35.804688 150.65625 35.84375 150.382812 35.933594 C 150.105469 36.019531 149.867188 36.140625 149.667969 36.292969 C 149.46875 36.445312 149.308594 36.621094 149.1875 36.828125 C 149.066406 37.03125 148.980469 37.25 148.925781 37.480469 L 148.898438 37.480469 L 148.898438 35.957031 L 148.660156 35.957031 L 148.660156 42.125 Z M 151.898438 34.769531 L 151.898438 33.558594 L 151.660156 33.558594 L 151.660156 34.769531 Z M 151.898438 42.125 L 151.898438 35.957031 L 151.660156 35.957031 L 151.660156 42.125 Z M 153.539062 39.089844 L 158.699219 39.089844 C 158.714844 38.664062 158.675781 38.257812 158.574219 37.863281 C 158.472656 37.472656 158.3125 37.125 158.09375 36.820312 C 157.875 36.515625 157.589844 36.273438 157.242188 36.089844 C 156.894531 35.90625 156.480469 35.8125 156 35.8125 C 155.65625 35.8125 155.320312 35.886719 154.992188 36.027344 C 154.664062 36.171875 154.375 36.382812 154.128906 36.660156 C 153.878906 36.933594 153.679688 37.273438 153.527344 37.671875 C 153.375 38.074219 153.300781 38.527344 153.300781 39.039062 C 153.300781 39.496094 153.351562 39.921875 153.457031 40.320312 C 153.558594 40.714844 153.71875 41.058594 153.9375 41.351562 C 154.152344 41.644531 154.429688 41.867188 154.769531 42.027344 C 155.109375 42.1875 155.519531 42.265625 156 42.257812 C 156.703125 42.257812 157.296875 42.058594 157.777344 41.664062 C 158.257812 41.265625 158.539062 40.710938 158.628906 39.988281 L 158.386719 39.988281 C 158.285156 40.667969 158.019531 41.179688 157.589844 41.519531 C 157.160156 41.859375 156.625 42.027344 155.976562 42.027344 C 155.535156 42.027344 155.164062 41.953125 154.859375 41.800781 C 154.554688 41.648438 154.308594 41.441406 154.117188 41.175781 C 153.925781 40.914062 153.78125 40.601562 153.691406 40.246094 C 153.597656 39.890625 153.546875 39.503906 153.539062 39.089844 Z M 158.460938 38.847656 L 153.539062 38.847656 C 153.5625 38.417969 153.644531 38.027344 153.78125 37.683594 C 153.917969 37.339844 154.09375 37.046875 154.3125 36.804688 C 154.535156 36.558594 154.789062 36.371094 155.082031 36.246094 C 155.375 36.117188 155.6875 36.054688 156.023438 36.054688 C 156.421875 36.054688 156.777344 36.128906 157.078125 36.273438 C 157.382812 36.421875 157.636719 36.625 157.84375 36.882812 C 158.046875 37.136719 158.199219 37.433594 158.304688 37.773438 C 158.410156 38.113281 158.460938 38.472656 158.460938 38.847656 Z M 159.660156 35.957031 L 159.660156 42.125 L 159.898438 42.125 L 159.898438 38.632812 C 159.898438 38.289062 159.949219 37.960938 160.042969 37.648438 C 160.140625 37.335938 160.28125 37.0625 160.46875 36.828125 C 160.65625 36.589844 160.890625 36.402344 161.171875 36.261719 C 161.453125 36.121094 161.777344 36.054688 162.144531 36.054688 C 162.40625 36.054688 162.65625 36.089844 162.894531 36.167969 C 163.128906 36.242188 163.339844 36.363281 163.519531 36.527344 C 163.699219 36.691406 163.839844 36.898438 163.945312 37.152344 C 164.046875 37.402344 164.101562 37.710938 164.101562 38.070312 L 164.101562 42.125 L 164.339844 42.125 L 164.339844 38.03125 C 164.339844 37.671875 164.285156 37.355469 164.179688 37.078125 C 164.070312 36.800781 163.917969 36.570312 163.722656 36.382812 C 163.527344 36.195312 163.292969 36.054688 163.027344 35.957031 C 162.757812 35.859375 162.464844 35.8125 162.144531 35.8125 C 161.839844 35.8125 161.5625 35.855469 161.316406 35.9375 C 161.066406 36.023438 160.851562 36.140625 160.660156 36.292969 C 160.472656 36.445312 160.316406 36.621094 160.195312 36.820312 C 160.070312 37.019531 159.980469 37.242188 159.925781 37.480469 L 159.898438 37.480469 L 159.898438 35.957031 Z M 170.460938 33.558594 L 170.460938 37.683594 L 170.4375 37.683594 C 170.292969 37.125 170.007812 36.671875 169.585938 36.328125 C 169.160156 35.984375 168.621094 35.8125 167.964844 35.8125 C 167.539062 35.8125 167.164062 35.902344 166.835938 36.078125 C 166.507812 36.253906 166.234375 36.488281 166.015625 36.785156 C 165.792969 37.082031 165.625 37.425781 165.511719 37.816406 C 165.394531 38.207031 165.335938 38.621094 165.335938 39.054688 C 165.335938 39.515625 165.394531 39.945312 165.515625 40.335938 C 165.636719 40.730469 165.808594 41.066406 166.039062 41.351562 C 166.265625 41.636719 166.542969 41.855469 166.867188 42.015625 C 167.191406 42.175781 167.554688 42.257812 167.964844 42.257812 C 168.597656 42.257812 169.125 42.085938 169.554688 41.742188 C 169.980469 41.398438 170.277344 40.949219 170.4375 40.398438 L 170.460938 40.398438 L 170.460938 42.125 L 170.699219 42.125 L 170.699219 33.558594 Z M 170.460938 39.054688 C 170.460938 39.453125 170.402344 39.832031 170.292969 40.191406 C 170.179688 40.550781 170.019531 40.867188 169.804688 41.140625 C 169.59375 41.414062 169.335938 41.628906 169.027344 41.789062 C 168.71875 41.949219 168.363281 42.027344 167.964844 42.027344 C 167.5625 42.027344 167.214844 41.949219 166.914062 41.789062 C 166.613281 41.628906 166.367188 41.410156 166.171875 41.136719 C 165.976562 40.859375 165.824219 40.539062 165.726562 40.179688 C 165.625 39.820312 165.574219 39.445312 165.574219 39.054688 C 165.574219 38.695312 165.621094 38.335938 165.714844 37.980469 C 165.804688 37.625 165.949219 37.304688 166.140625 37.019531 C 166.332031 36.734375 166.578125 36.503906 166.882812 36.324219 C 167.1875 36.144531 167.546875 36.054688 167.964844 36.054688 C 168.714844 36.054688 169.320312 36.3125 169.777344 36.828125 C 170.234375 37.34375 170.460938 38.085938 170.460938 39.054688 Z M 175.679688 37.78125 L 175.921875 37.78125 C 175.921875 37.09375 175.71875 36.59375 175.320312 36.28125 C 174.921875 35.96875 174.375 35.8125 173.6875 35.8125 C 173.304688 35.8125 172.980469 35.859375 172.714844 35.957031 C 172.453125 36.054688 172.234375 36.175781 172.066406 36.328125 C 171.898438 36.480469 171.78125 36.648438 171.707031 36.832031 C 171.636719 37.015625 171.601562 37.191406 171.601562 37.359375 C 171.601562 37.695312 171.660156 37.964844 171.78125 38.164062 C 171.902344 38.363281 172.089844 38.519531 172.34375 38.632812 C 172.519531 38.714844 172.71875 38.785156 172.945312 38.847656 C 173.167969 38.914062 173.429688 38.980469 173.722656 39.054688 C 173.988281 39.117188 174.246094 39.179688 174.503906 39.246094 C 174.761719 39.308594 174.984375 39.394531 175.183594 39.503906 C 175.378906 39.609375 175.539062 39.75 175.660156 39.917969 C 175.785156 40.085938 175.847656 40.304688 175.847656 40.578125 C 175.847656 40.839844 175.785156 41.066406 175.660156 41.25 C 175.539062 41.433594 175.378906 41.582031 175.1875 41.699219 C 174.996094 41.816406 174.78125 41.898438 174.546875 41.949219 C 174.308594 42.003906 174.078125 42.027344 173.855469 42.027344 C 173.128906 42.027344 172.570312 41.867188 172.183594 41.542969 C 171.792969 41.21875 171.601562 40.710938 171.601562 40.011719 L 171.359375 40.011719 C 171.359375 40.789062 171.570312 41.355469 171.988281 41.71875 C 172.410156 42.078125 173.03125 42.257812 173.855469 42.257812 C 174.121094 42.257812 174.386719 42.226562 174.652344 42.167969 C 174.921875 42.105469 175.160156 42.007812 175.375 41.871094 C 175.585938 41.738281 175.757812 41.5625 175.890625 41.34375 C 176.023438 41.128906 176.089844 40.863281 176.089844 40.554688 C 176.089844 40.257812 176.03125 40.015625 175.914062 39.832031 C 175.796875 39.648438 175.644531 39.496094 175.457031 39.378906 C 175.269531 39.257812 175.058594 39.164062 174.820312 39.09375 C 174.585938 39.027344 174.347656 38.960938 174.109375 38.898438 C 173.773438 38.808594 173.476562 38.734375 173.226562 38.667969 C 172.972656 38.605469 172.738281 38.527344 172.523438 38.441406 C 172.316406 38.351562 172.148438 38.226562 172.027344 38.0625 C 171.902344 37.898438 171.839844 37.664062 171.839844 37.359375 C 171.839844 37.304688 171.855469 37.203125 171.886719 37.0625 C 171.917969 36.917969 171.996094 36.769531 172.117188 36.621094 C 172.238281 36.472656 172.421875 36.34375 172.667969 36.226562 C 172.914062 36.109375 173.257812 36.054688 173.6875 36.054688 C 173.984375 36.054688 174.253906 36.085938 174.496094 36.148438 C 174.742188 36.210938 174.953125 36.316406 175.128906 36.453125 C 175.304688 36.59375 175.441406 36.773438 175.535156 36.988281 C 175.632812 37.203125 175.679688 37.46875 175.679688 37.78125 Z M 90 30.125 "/>
<path style="fill-rule:nonzero;fill:rgb(0%,0%,0%);fill-opacity:0.0980392;stroke-width:2;stroke-linecap:butt;stroke-linejoin:miter;stroke:rgb(100%,100%,100%);stroke-opacity:1;stroke-miterlimit:10;" d="M 202 32 L 242 32 L 242 44 L 202 44 Z M 202 32 "/>
<path style=" stroke:none;fill-rule:nonzero;fill:rgb(40%,40%,40%);fill-opacity:1;" d="M 256.316406 33.558594 L 252.691406 41.8125 L 252.667969 41.8125 L 249.042969 33.558594 L 248.648438 33.558594 L 248.648438 42.125 L 248.886719 42.125 L 248.886719 33.855469 L 248.910156 33.855469 L 252.546875 42.125 L 252.8125 42.125 L 256.449219 33.855469 L 256.472656 33.855469 L 256.472656 42.125 L 256.710938 42.125 L 256.710938 33.558594 Z M 257.648438 37.863281 L 257.886719 37.863281 C 257.925781 37.289062 258.128906 36.84375 258.488281 36.527344 C 258.847656 36.210938 259.351562 36.054688 260 36.054688 C 260.40625 36.054688 260.730469 36.105469 260.972656 36.214844 C 261.210938 36.324219 261.394531 36.460938 261.519531 36.628906 C 261.640625 36.796875 261.71875 36.980469 261.753906 37.179688 C 261.785156 37.378906 261.800781 37.574219 261.800781 37.757812 C 261.800781 37.988281 261.753906 38.167969 261.660156 38.289062 C 261.570312 38.414062 261.425781 38.507812 261.230469 38.566406 C 261.035156 38.625 260.785156 38.667969 260.480469 38.6875 C 260.175781 38.707031 259.8125 38.730469 259.386719 38.753906 C 259.132812 38.769531 258.875 38.804688 258.621094 38.855469 C 258.363281 38.90625 258.136719 39 257.9375 39.132812 C 257.738281 39.261719 257.574219 39.445312 257.449219 39.675781 C 257.324219 39.910156 257.265625 40.21875 257.265625 40.601562 C 257.265625 41.152344 257.453125 41.566406 257.828125 41.84375 C 258.203125 42.121094 258.703125 42.257812 259.328125 42.257812 C 259.648438 42.257812 259.945312 42.214844 260.214844 42.132812 C 260.488281 42.046875 260.730469 41.933594 260.941406 41.789062 C 261.152344 41.644531 261.328125 41.480469 261.46875 41.296875 C 261.609375 41.113281 261.710938 40.921875 261.777344 40.722656 L 261.800781 40.722656 L 261.800781 41.523438 C 261.800781 41.757812 261.867188 41.914062 261.996094 42 C 262.128906 42.082031 262.285156 42.125 262.460938 42.125 L 262.820312 42.125 L 262.820312 41.886719 C 262.738281 41.894531 262.652344 41.898438 262.5625 41.902344 C 262.46875 41.90625 262.382812 41.898438 262.304688 41.878906 C 262.222656 41.859375 262.160156 41.820312 262.113281 41.765625 C 262.0625 41.710938 262.039062 41.621094 262.039062 41.5 L 262.039062 37.578125 C 262.03125 37.242188 261.972656 36.960938 261.859375 36.738281 C 261.746094 36.511719 261.601562 36.332031 261.414062 36.191406 C 261.230469 36.050781 261.019531 35.953125 260.773438 35.898438 C 260.53125 35.839844 260.273438 35.8125 260 35.8125 C 259.617188 35.8125 259.28125 35.863281 258.996094 35.96875 C 258.714844 36.074219 258.472656 36.21875 258.277344 36.402344 C 258.082031 36.585938 257.933594 36.804688 257.828125 37.054688 C 257.722656 37.308594 257.664062 37.578125 257.648438 37.863281 Z M 261.800781 38.5 L 261.800781 39.640625 C 261.800781 39.945312 261.746094 40.242188 261.636719 40.527344 C 261.53125 40.816406 261.371094 41.070312 261.15625 41.289062 C 260.945312 41.511719 260.683594 41.6875 260.371094 41.824219 C 260.058594 41.960938 259.703125 42.027344 259.304688 42.027344 C 258.96875 42.027344 258.6875 41.988281 258.457031 41.902344 C 258.230469 41.820312 258.042969 41.710938 257.898438 41.578125 C 257.753906 41.445312 257.652344 41.296875 257.59375 41.121094 C 257.535156 40.949219 257.503906 40.777344 257.503906 40.601562 C 257.503906 40.273438 257.554688 40.007812 257.660156 39.804688 C 257.765625 39.597656 257.902344 39.4375 258.078125 39.324219 C 258.253906 39.207031 258.457031 39.128906 258.6875 39.082031 C 258.914062 39.039062 259.148438 39.007812 259.386719 38.992188 C 259.628906 38.976562 259.875 38.964844 260.125 38.957031 C 260.378906 38.949219 260.613281 38.929688 260.828125 38.898438 C 261.042969 38.867188 261.234375 38.820312 261.402344 38.757812 C 261.570312 38.699219 261.695312 38.613281 261.777344 38.5 Z M 263.898438 39.796875 L 265.496094 38.476562 L 268.386719 42.125 L 268.710938 42.125 L 265.675781 38.308594 L 268.507812 35.957031 L 268.160156 35.957031 L 263.898438 39.496094 L 263.898438 33.558594 L 263.660156 33.558594 L 263.660156 42.125 L 263.898438 42.125 Z M 268.898438 34.769531 L 268.898438 33.558594 L 268.660156 33.558594 L 268.660156 34.769531 Z M 268.898438 42.125 L 268.898438 35.957031 L 268.660156 35.957031 L 268.660156 42.125 Z M 270.660156 35.957031 L 270.660156 42.125 L 270.898438 42.125 L 270.898438 38.632812 C 270.898438 38.289062 270.949219 37.960938 271.042969 37.648438 C 271.140625 37.335938 271.28125 37.0625 271.46875 36.828125 C 271.65625 36.589844 271.890625 36.402344 272.171875 36.261719 C 272.453125 36.121094 272.777344 36.054688 273.144531 36.054688 C 273.40625 36.054688 273.65625 36.089844 273.894531 36.167969 C 274.128906 36.242188 274.339844 36.363281 274.519531 36.527344 C 274.699219 36.691406 274.839844 36.898438 274.945312 37.152344 C 275.046875 37.402344 275.101562 37.710938 275.101562 38.070312 L 275.101562 42.125 L 275.339844 42.125 L 275.339844 38.03125 C 275.339844 37.671875 275.285156 37.355469 275.179688 37.078125 C 275.070312 36.800781 274.917969 36.570312 274.722656 36.382812 C 274.527344 36.195312 274.292969 36.054688 274.027344 35.957031 C 273.757812 35.859375 273.464844 35.8125 273.144531 35.8125 C 272.839844 35.8125 272.5625 35.855469 272.316406 35.9375 C 272.066406 36.023438 271.851562 36.140625 271.660156 36.292969 C 271.472656 36.445312 271.316406 36.621094 271.195312 36.820312 C 271.070312 37.019531 270.980469 37.242188 270.925781 37.480469 L 270.898438 37.480469 L 270.898438 35.957031 Z M 281.351562 40.0625 L 281.351562 41.921875 C 281.351562 42.6875 281.148438 43.25 280.746094 43.605469 C 280.34375 43.960938 279.765625 44.140625 279.011719 44.140625 C 278.738281 44.140625 278.476562 44.109375 278.226562 44.046875 C 277.972656 43.980469 277.753906 43.882812 277.558594 43.746094 C 277.367188 43.609375 277.214844 43.433594 277.097656 43.21875 C 276.980469 43 276.921875 42.742188 276.910156 42.4375 L 276.671875 42.4375 C 276.679688 42.789062 276.746094 43.085938 276.875 43.332031 C 277.003906 43.574219 277.175781 43.773438 277.390625 43.929688 C 277.609375 44.085938 277.855469 44.199219 278.136719 44.273438 C 278.417969 44.34375 278.710938 44.382812 279.023438 44.382812 C 279.839844 44.382812 280.472656 44.183594 280.921875 43.785156 C 281.367188 43.390625 281.59375 42.769531 281.59375 41.921875 L 281.59375 35.957031 L 281.351562 35.957031 L 281.351562 37.601562 L 281.328125 37.601562 C 281.265625 37.34375 281.160156 37.109375 281.023438 36.894531 C 280.882812 36.675781 280.710938 36.488281 280.507812 36.328125 C 280.300781 36.167969 280.070312 36.042969 279.816406 35.949219 C 279.558594 35.859375 279.285156 35.8125 278.988281 35.8125 C 278.554688 35.8125 278.175781 35.894531 277.84375 36.054688 C 277.511719 36.214844 277.230469 36.429688 277.007812 36.707031 C 276.785156 36.984375 276.617188 37.304688 276.503906 37.667969 C 276.390625 38.03125 276.335938 38.421875 276.335938 38.835938 C 276.335938 39.230469 276.390625 39.605469 276.496094 39.964844 C 276.605469 40.324219 276.765625 40.640625 276.976562 40.90625 C 277.191406 41.175781 277.457031 41.390625 277.777344 41.550781 C 278.097656 41.710938 278.472656 41.789062 278.902344 41.789062 C 279.167969 41.789062 279.429688 41.75 279.691406 41.675781 C 279.949219 41.597656 280.191406 41.488281 280.410156 41.339844 C 280.628906 41.191406 280.820312 41.007812 280.984375 40.792969 C 281.148438 40.578125 281.265625 40.332031 281.328125 40.0625 Z M 281.339844 38.835938 C 281.339844 39.203125 281.285156 39.554688 281.179688 39.886719 C 281.070312 40.21875 280.914062 40.507812 280.710938 40.75 C 280.507812 40.996094 280.253906 41.1875 279.949219 41.332031 C 279.644531 41.476562 279.292969 41.550781 278.890625 41.550781 C 278.515625 41.550781 278.183594 41.480469 277.894531 41.339844 C 277.609375 41.199219 277.367188 41.007812 277.171875 40.761719 C 276.976562 40.519531 276.824219 40.234375 276.726562 39.90625 C 276.625 39.578125 276.574219 39.222656 276.574219 38.835938 C 276.574219 38.460938 276.625 38.105469 276.726562 37.769531 C 276.828125 37.433594 276.976562 37.136719 277.183594 36.882812 C 277.386719 36.625 277.636719 36.421875 277.9375 36.273438 C 278.238281 36.125 278.589844 36.054688 278.988281 36.054688 C 279.371094 36.054688 279.710938 36.132812 280.007812 36.285156 C 280.304688 36.441406 280.550781 36.652344 280.746094 36.910156 C 280.941406 37.171875 281.089844 37.46875 281.191406 37.804688 C 281.289062 38.140625 281.339844 38.484375 281.339844 38.835938 Z M 285 36.195312 L 286.042969 36.195312 L 286.042969 42.125 L 286.285156 42.125 L 286.285156 36.195312 L 287.617188 36.195312 L 287.617188 35.957031 L 286.285156 35.957031 L 286.285156 34.671875 C 286.285156 34.367188 286.34375 34.148438 286.457031 34.007812 C 286.574219 33.867188 286.824219 33.796875 287.207031 33.796875 C 287.296875 33.796875 287.382812 33.800781 287.472656 33.808594 C 287.558594 33.816406 287.660156 33.828125 287.773438 33.84375 L 287.773438 33.605469 C 287.707031 33.597656 287.632812 33.585938 287.550781 33.574219 C 287.464844 33.5625 287.367188 33.558594 287.257812 33.558594 C 287.128906 33.558594 286.992188 33.566406 286.847656 33.582031 C 286.703125 33.597656 286.570312 33.640625 286.453125 33.707031 C 286.332031 33.773438 286.234375 33.878906 286.15625 34.011719 C 286.082031 34.148438 286.042969 34.339844 286.042969 34.589844 L 286.042969 35.957031 L 285 35.957031 Z M 287.648438 37.863281 L 287.886719 37.863281 C 287.925781 37.289062 288.128906 36.84375 288.488281 36.527344 C 288.847656 36.210938 289.351562 36.054688 290 36.054688 C 290.40625 36.054688 290.730469 36.105469 290.972656 36.214844 C 291.210938 36.324219 291.394531 36.460938 291.519531 36.628906 C 291.640625 36.796875 291.71875 36.980469 291.753906 37.179688 C 291.785156 37.378906 291.800781 37.574219 291.800781 37.757812 C 291.800781 37.988281 291.753906 38.167969 291.660156 38.289062 C 291.570312 38.414062 291.425781 38.507812 291.230469 38.566406 C 291.035156 38.625 290.785156 38.667969 290.480469 38.6875 C 290.175781 38.707031 289.8125 38.730469 289.386719 38.753906 C 289.132812 38.769531 288.875 38.804688 288.621094 38.855469 C 288.363281 38.90625 288.136719 39 287.9375 39.132812 C 287.738281 39.261719 287.574219 39.445312 287.449219 39.675781 C 287.324219 39.910156 287.265625 40.21875 287.265625 40.601562 C 287.265625 41.152344 287.453125 41.566406 287.828125 41.84375 C 288.203125 42.121094 288.703125 42.257812 289.328125 42.257812 C 289.648438 42.257812 289.945312 42.214844 290.214844 42.132812 C 290.488281 42.046875 290.730469 41.933594 290.941406 41.789062 C 291.152344 41.644531 291.328125 41.480469 291.46875 41.296875 C 291.609375 41.113281 291.710938 40.921875 291.777344 40.722656 L 291.800781 40.722656 L 291.800781 41.523438 C 291.800781 41.757812 291.867188 41.914062 291.996094 42 C 292.128906 42.082031 292.285156 42.125 292.460938 42.125 L 292.820312 42.125 L 292.820312 41.886719 C 292.738281 41.894531 292.652344 41.898438 292.5625 41.902344 C 292.46875 41.90625 292.382812 41.898438 292.304688 41.878906 C 292.222656 41.859375 292.160156 41.820312 292.113281 41.765625 C 292.0625 41.710938 292.039062 41.621094 292.039062 41.5 L 292.039062 37.578125 C 292.03125 37.242188 291.972656 36.960938 291.859375 36.738281 C 291.746094 36.511719 291.601562 36.332031 291.414062 36.191406 C 291.230469 36.050781 291.019531 35.953125 290.773438 35.898438 C 290.53125 35.839844 290.273438 35.8125 290 35.8125 C 289.617188 35.8125 289.28125 35.863281 288.996094 35.96875 C 288.714844 36.074219 288.472656 36.21875 288.277344 36.402344 C 288.082031 36.585938 287.933594 36.804688 287.828125 37.054688 C 287.722656 37.308594 287.664062 37.578125 287.648438 37.863281 Z M 291.800781 38.5 L 291.800781 39.640625 C 291.800781 39.945312 291.746094 40.242188 291.636719 40.527344 C 291.53125 40.816406 291.371094 41.070312 291.15625 41.289062 C 290.945312 41.511719 290.683594 41.6875 290.371094 41.824219 C 290.058594 41.960938 289.703125 42.027344 289.304688 42.027344 C 288.96875 42.027344 288.6875 41.988281 288.457031 41.902344 C 288.230469 41.820312 288.042969 41.710938 287.898438 41.578125 C 287.753906 41.445312 287.652344 41.296875 287.59375 41.121094 C 287.535156 40.949219 287.503906 40.777344 287.503906 40.601562 C 287.503906 40.273438 287.554688 40.007812 287.660156 39.804688 C 287.765625 39.597656 287.902344 39.4375 288.078125 39.324219 C 288.253906 39.207031 288.457031 39.128906 288.6875 39.082031 C 288.914062 39.039062 289.148438 39.007812 289.386719 38.992188 C 289.628906 38.976562 289.875 38.964844 290.125 38.957031 C 290.378906 38.949219 290.613281 38.929688 290.828125 38.898438 C 291.042969 38.867188 291.234375 38.820312 291.402344 38.757812 C 291.570312 38.699219 291.695312 38.613281 291.777344 38.5 Z M 293.660156 35.957031 L 293.660156 42.125 L 293.898438 42.125 L 293.898438 38.632812 C 293.898438 38.289062 293.949219 37.960938 294.042969 37.648438 C 294.140625 37.335938 294.28125 37.0625 294.46875 36.828125 C 294.65625 36.589844 294.890625 36.402344 295.171875 36.261719 C 295.453125 36.121094 295.777344 36.054688 296.144531 36.054688 C 296.40625 36.054688 296.65625 36.089844 296.894531 36.167969 C 297.128906 36.242188 297.339844 36.363281 297.519531 36.527344 C 297.699219 36.691406 297.839844 36.898438 297.945312 37.152344 C 298.046875 37.402344 298.101562 37.710938 298.101562 38.070312 L 298.101562 42.125 L 298.339844 42.125 L 298.339844 38.03125 C 298.339844 37.671875 298.285156 37.355469 298.179688 37.078125 C 298.070312 36.800781 297.917969 36.570312 297.722656 36.382812 C 297.527344 36.195312 297.292969 36.054688 297.027344 35.957031 C 296.757812 35.859375 296.464844 35.8125 296.144531 35.8125 C 295.839844 35.8125 295.5625 35.855469 295.316406 35.9375 C 295.066406 36.023438 294.851562 36.140625 294.660156 36.292969 C 294.472656 36.445312 294.316406 36.621094 294.195312 36.820312 C 294.070312 37.019531 293.980469 37.242188 293.925781 37.480469 L 293.898438 37.480469 L 293.898438 35.957031 Z M 304.628906 40.023438 L 304.386719 40.023438 C 304.363281 40.335938 304.289062 40.613281 304.160156 40.859375 C 304.03125 41.101562 303.867188 41.3125 303.660156 41.488281 C 303.457031 41.664062 303.222656 41.800781 302.960938 41.890625 C 302.695312 41.984375 302.410156 42.027344 302.109375 42.027344 C 301.699219 42.027344 301.339844 41.949219 301.027344 41.796875 C 300.714844 41.640625 300.457031 41.429688 300.246094 41.164062 C 300.039062 40.902344 299.882812 40.597656 299.773438 40.253906 C 299.664062 39.910156 299.613281 39.550781 299.613281 39.171875 C 299.613281 38.8125 299.65625 38.445312 299.75 38.074219 C 299.84375 37.703125 299.988281 37.367188 300.195312 37.066406 C 300.398438 36.765625 300.671875 36.523438 301.011719 36.335938 C 301.351562 36.148438 301.765625 36.054688 302.253906 36.054688 C 302.507812 36.054688 302.753906 36.089844 302.984375 36.160156 C 303.214844 36.234375 303.425781 36.34375 303.609375 36.492188 C 303.792969 36.640625 303.949219 36.824219 304.074219 37.042969 C 304.203125 37.261719 304.292969 37.523438 304.339844 37.828125 L 304.578125 37.828125 C 304.539062 37.5 304.449219 37.210938 304.308594 36.960938 C 304.167969 36.707031 303.996094 36.496094 303.789062 36.328125 C 303.582031 36.160156 303.34375 36.03125 303.078125 35.945312 C 302.816406 35.855469 302.539062 35.8125 302.253906 35.8125 C 301.765625 35.8125 301.339844 35.90625 300.972656 36.089844 C 300.609375 36.273438 300.308594 36.519531 300.074219 36.828125 C 299.839844 37.136719 299.660156 37.492188 299.546875 37.894531 C 299.429688 38.300781 299.371094 38.726562 299.371094 39.171875 C 299.371094 39.597656 299.433594 39.996094 299.550781 40.367188 C 299.671875 40.738281 299.847656 41.066406 300.078125 41.34375 C 300.3125 41.625 300.597656 41.847656 300.9375 42.011719 C 301.277344 42.175781 301.667969 42.257812 302.109375 42.257812 C 302.460938 42.257812 302.78125 42.203125 303.074219 42.101562 C 303.367188 41.996094 303.621094 41.847656 303.84375 41.65625 C 304.0625 41.464844 304.238281 41.230469 304.375 40.953125 C 304.511719 40.679688 304.597656 40.367188 304.628906 40.023438 Z M 309.777344 35.957031 L 307.566406 41.800781 L 305.121094 35.957031 L 304.867188 35.957031 L 307.4375 42.066406 L 306.992188 43.203125 C 306.921875 43.386719 306.84375 43.535156 306.757812 43.644531 C 306.675781 43.75 306.578125 43.832031 306.46875 43.882812 C 306.363281 43.933594 306.234375 43.96875 306.085938 43.980469 C 305.9375 43.992188 305.761719 43.996094 305.550781 43.996094 L 305.550781 44.238281 C 305.734375 44.238281 305.910156 44.230469 306.074219 44.21875 C 306.238281 44.207031 306.386719 44.171875 306.523438 44.117188 C 306.660156 44.0625 306.785156 43.976562 306.894531 43.859375 C 307.007812 43.742188 307.105469 43.582031 307.183594 43.371094 L 310.027344 35.957031 Z M 318.460938 33.558594 L 318.460938 37.683594 L 318.4375 37.683594 C 318.292969 37.125 318.007812 36.671875 317.585938 36.328125 C 317.160156 35.984375 316.621094 35.8125 315.964844 35.8125 C 315.539062 35.8125 315.164062 35.902344 314.835938 36.078125 C 314.507812 36.253906 314.234375 36.488281 314.015625 36.785156 C 313.792969 37.082031 313.625 37.425781 313.511719 37.816406 C 313.394531 38.207031 313.335938 38.621094 313.335938 39.054688 C 313.335938 39.515625 313.394531 39.945312 313.515625 40.335938 C 313.636719 40.730469 313.808594 41.066406 314.039062 41.351562 C 314.265625 41.636719 314.542969 41.855469 314.867188 42.015625 C 315.191406 42.175781 315.554688 42.257812 315.964844 42.257812 C 316.597656 42.257812 317.125 42.085938 317.554688 41.742188 C 317.980469 41.398438 318.277344 40.949219 318.4375 40.398438 L 318.460938 40.398438 L 318.460938 42.125 L 318.699219 42.125 L 318.699219 33.558594 Z M 318.460938 39.054688 C 318.460938 39.453125 318.402344 39.832031 318.292969 40.191406 C 318.179688 40.550781 318.019531 40.867188 317.804688 41.140625 C 317.59375 41.414062 317.335938 41.628906 317.027344 41.789062 C 316.71875 41.949219 316.363281 42.027344 315.964844 42.027344 C 315.5625 42.027344 315.214844 41.949219 314.914062 41.789062 C 314.613281 41.628906 314.367188 41.410156 314.171875 41.136719 C 313.976562 40.859375 313.824219 40.539062 313.726562 40.179688 C 313.625 39.820312 313.574219 39.445312 313.574219 39.054688 C 313.574219 38.695312 313.621094 38.335938 313.714844 37.980469 C 313.804688 37.625 313.949219 37.304688 314.140625 37.019531 C 314.332031 36.734375 314.578125 36.503906 314.882812 36.324219 C 315.1875 36.144531 315.546875 36.054688 315.964844 36.054688 C 316.714844 36.054688 317.320312 36.3125 317.777344 36.828125 C 318.234375 37.34375 318.460938 38.085938 318.460938 39.054688 Z M 319.898438 42.125 L 319.898438 38.632812 C 319.898438 38.296875 319.949219 37.96875 320.042969 37.648438 C 320.140625 37.328125 320.289062 37.046875 320.488281 36.804688 C 320.6875 36.558594 320.941406 36.367188 321.25 36.226562 C 321.558594 36.085938 321.925781 36.027344 322.347656 36.054688 L 322.347656 35.8125 C 321.980469 35.804688 321.65625 35.84375 321.382812 35.933594 C 321.105469 36.019531 320.867188 36.140625 320.667969 36.292969 C 320.46875 36.445312 320.308594 36.621094 320.1875 36.828125 C 320.066406 37.03125 319.980469 37.25 319.925781 37.480469 L 319.898438 37.480469 L 319.898438 35.957031 L 319.660156 35.957031 L 319.660156 42.125 Z M 322.898438 34.769531 L 322.898438 33.558594 L 322.660156 33.558594 L 322.660156 34.769531 Z M 322.898438 42.125 L 322.898438 35.957031 L 322.660156 35.957031 L 322.660156 42.125 Z M 324.660156 35.957031 L 324.660156 42.125 L 324.898438 42.125 L 324.898438 38.632812 C 324.898438 38.289062 324.949219 37.960938 325.042969 37.648438 C 325.140625 37.335938 325.28125 37.0625 325.46875 36.828125 C 325.65625 36.589844 325.890625 36.402344 326.171875 36.261719 C 326.453125 36.121094 326.777344 36.054688 327.144531 36.054688 C 327.40625 36.054688 327.65625 36.089844 327.894531 36.167969 C 328.128906 36.242188 328.339844 36.363281 328.519531 36.527344 C 328.699219 36.691406 328.839844 36.898438 328.945312 37.152344 C 329.046875 37.402344 329.101562 37.710938 329.101562 38.070312 L 329.101562 42.125 L 329.339844 42.125 L 329.339844 38.03125 C 329.339844 37.671875 329.285156 37.355469 329.179688 37.078125 C 329.070312 36.800781 328.917969 36.570312 328.722656 36.382812 C 328.527344 36.195312 328.292969 36.054688 328.027344 35.957031 C 327.757812 35.859375 327.464844 35.8125 327.144531 35.8125 C 326.839844 35.8125 326.5625 35.855469 326.316406 35.9375 C 326.066406 36.023438 325.851562 36.140625 325.660156 36.292969 C 325.472656 36.445312 325.316406 36.621094 325.195312 36.820312 C 325.070312 37.019531 324.980469 37.242188 324.925781 37.480469 L 324.898438 37.480469 L 324.898438 35.957031 Z M 330.898438 39.796875 L 332.496094 38.476562 L 335.386719 42.125 L 335.710938 42.125 L 332.675781 38.308594 L 335.507812 35.957031 L 335.160156 35.957031 L 330.898438 39.496094 L 330.898438 33.558594 L 330.660156 33.558594 L 330.660156 42.125 L 330.898438 42.125 Z M 339.679688 37.78125 L 339.921875 37.78125 C 339.921875 37.09375 339.71875 36.59375 339.320312 36.28125 C 338.921875 35.96875 338.375 35.8125 337.6875 35.8125 C 337.304688 35.8125 336.980469 35.859375 336.714844 35.957031 C 336.453125 36.054688 336.234375 36.175781 336.066406 36.328125 C 335.898438 36.480469 335.78125 36.648438 335.707031 36.832031 C 335.636719 37.015625 335.601562 37.191406 335.601562 37.359375 C 335.601562 37.695312 335.660156 37.964844 335.78125 38.164062 C 335.902344 38.363281 336.089844 38.519531 336.34375 38.632812 C 336.519531 38.714844 336.71875 38.785156 336.945312 38.847656 C 337.167969 38.914062 337.429688 38.980469 337.722656 39.054688 C 337.988281 39.117188 338.246094 39.179688 338.503906 39.246094 C 338.761719 39.308594 338.984375 39.394531 339.183594 39.503906 C 339.378906 39.609375 339.539062 39.75 339.660156 39.917969 C 339.785156 40.085938 339.847656 40.304688 339.847656 40.578125 C 339.847656 40.839844 339.785156 41.066406 339.660156 41.25 C 339.539062 41.433594 339.378906 41.582031 339.1875 41.699219 C 338.996094 41.816406 338.78125 41.898438 338.546875 41.949219 C 338.308594 42.003906 338.078125 42.027344 337.855469 42.027344 C 337.128906 42.027344 336.570312 41.867188 336.183594 41.542969 C 335.792969 41.21875 335.601562 40.710938 335.601562 40.011719 L 335.359375 40.011719 C 335.359375 40.789062 335.570312 41.355469 335.988281 41.71875 C 336.410156 42.078125 337.03125 42.257812 337.855469 42.257812 C 338.121094 42.257812 338.386719 42.226562 338.652344 42.167969 C 338.921875 42.105469 339.160156 42.007812 339.375 41.871094 C 339.585938 41.738281 339.757812 41.5625 339.890625 41.34375 C 340.023438 41.128906 340.089844 40.863281 340.089844 40.554688 C 340.089844 40.257812 340.03125 40.015625 339.914062 39.832031 C 339.796875 39.648438 339.644531 39.496094 339.457031 39.378906 C 339.269531 39.257812 339.058594 39.164062 338.820312 39.09375 C 338.585938 39.027344 338.347656 38.960938 338.109375 38.898438 C 337.773438 38.808594 337.476562 38.734375 337.226562 38.667969 C 336.972656 38.605469 336.738281 38.527344 336.523438 38.441406 C 336.316406 38.351562 336.148438 38.226562 336.027344 38.0625 C 335.902344 37.898438 335.839844 37.664062 335.839844 37.359375 C 335.839844 37.304688 335.855469 37.203125 335.886719 37.0625 C 335.917969 36.917969 335.996094 36.769531 336.117188 36.621094 C 336.238281 36.472656 336.421875 36.34375 336.667969 36.226562 C 336.914062 36.109375 337.257812 36.054688 337.6875 36.054688 C 337.984375 36.054688 338.253906 36.085938 338.496094 36.148438 C 338.742188 36.210938 338.953125 36.316406 339.128906 36.453125 C 339.304688 36.59375 339.441406 36.773438 339.535156 36.988281 C 339.632812 37.203125 339.679688 37.46875 339.679688 37.78125 Z M 248 30.125 "/>
<path style="fill-rule:nonzero;fill:rgb(96.078431%,82.352941%,28.235294%);fill-opacity:1;stroke-width:2;stroke-linecap:butt;stroke-linejoin:bevel;stroke:rgb(100%,100%,100%);stroke-opacity:1;stroke-miterlimit:10;" d="M 200 55 C 245.875 55 287.875 80.738281 308.703125 121.613281 C 329.53125 162.488281 325.664062 211.59375 298.699219 248.710938 L 200 177 Z M 200 55 "/>
<path style="fill-rule:nonzero;fill:rgb(89.019608%,54.509804%,51.764706%);fill-opacity:1;stroke-width:2;stroke-linecap:butt;stroke-linejoin:bevel;stroke:rgb(100%,100%,100%);stroke-opacity:1;stroke-miterlimit:10;" d="M 298.699219 248.710938 C 259.097656 303.21875 182.800781 315.304688 128.289062 275.699219 L 200 177 Z M 298.699219 248.710938 "/>
<path style="fill-rule:nonzero;fill:rgb(12.54902%,36.862745%,44.313725%);fill-opacity:1;stroke-width:2;stroke-linecap:butt;stroke-linejoin:bevel;stroke:rgb(100%,100%,100%);stroke-opacity:1;stroke-miterlimit:10;" d="M 128.289062 275.699219 C 96.695312 252.746094 78 216.054688 78 177 C 78 137.945312 96.695312 101.253906 128.289062 78.300781 L 200 177 Z M 128.289062 275.699219 "/>
<path style="fill-rule:nonzero;fill:rgb(0%,0%,0%);fill-opacity:0.0980392;stroke-width:2;stroke-linecap:butt;stroke-linejoin:bevel;stroke:rgb(100%,100%,100%);stroke-opacity:1;stroke-miterlimit:10;" d="M 128.289062 78.300781 C 149.132812 63.15625 174.234375 55 200 55 L 200 177 Z M 128.289062 78.300781 "/>
</g>
</svg>
