<?xml version="1.0" encoding="UTF-8"?>
<svg xmlns="http://www.w3.org/2000/svg" xmlns:xlink="http://www.w3.org/1999/xlink" width="400pt" height="300pt" viewBox="0 0 400 300" version="1.1">
<g id="surface1">
<path style="fill-rule:nonzero;fill:rgb(96.078431%,82.352941%,28.235294%);fill-opacity:1;stroke-width:2;stroke-linecap:butt;stroke-linejoin:miter;stroke:rgb(100%,100%,100%);stroke-opacity:1;stroke-miterlimit:10;" d="M 88.5 10 L 128.5 10 L 128.5 22 L 88.5 22 Z M 88.5 10 "/>
<path style=" stroke:none;fill-rule:nonzero;fill:rgb(40%,40%,40%);fill-opacity:1;" d="M 140.96875 20.160156 L 139.0625 17.019531 L 137.03125 17.019531 L 137.03125 20.160156 L 135.296875 20.160156 L 135.296875 11.910156 L 139.421875 11.910156 C 139.941406 11.910156 140.394531 11.96875 140.78125 12.082031 C 141.164062 12.199219 141.484375 12.363281 141.734375 12.582031 C 141.992188 12.792969 142.1875 13.046875 142.3125 13.347656 C 142.445312 13.652344 142.515625 13.988281 142.515625 14.363281 C 142.515625 14.675781 142.46875 14.964844 142.375 15.222656 C 142.28125 15.472656 142.148438 15.699219 141.984375 15.894531 C 141.828125 16.09375 141.632812 16.261719 141.40625 16.394531 C 141.1875 16.53125 140.945312 16.628906 140.6875 16.691406 L 142.921875 20.160156 Z M 140.765625 14.441406 C 140.765625 14.035156 140.632812 13.734375 140.375 13.535156 C 140.113281 13.339844 139.738281 13.238281 139.25 13.238281 L 137.03125 13.238281 L 137.03125 15.675781 L 139.296875 15.675781 C 139.554688 15.675781 139.773438 15.652344 139.953125 15.597656 C 140.140625 15.535156 140.289062 15.449219 140.40625 15.332031 C 140.53125 15.21875 140.617188 15.089844 140.671875 14.941406 C 140.734375 14.785156 140.765625 14.621094 140.765625 14.441406 Z M 150.359375 16.988281 C 150.359375 17.46875 150.289062 17.910156 150.15625 18.316406 C 150.019531 18.714844 149.816406 19.058594 149.546875 19.347656 C 149.285156 19.640625 148.953125 19.871094 148.546875 20.035156 C 148.140625 20.199219 147.671875 20.285156 147.140625 20.285156 C 146.617188 20.285156 146.160156 20.207031 145.765625 20.050781 C 145.378906 19.886719 145.050781 19.65625 144.78125 19.363281 C 144.507812 19.074219 144.304688 18.730469 144.171875 18.332031 C 144.035156 17.925781 143.96875 17.480469 143.96875 16.988281 C 143.96875 16.511719 144.03125 16.074219 144.15625 15.675781 C 144.289062 15.269531 144.488281 14.921875 144.75 14.628906 C 145.019531 14.339844 145.351562 14.113281 145.75 13.957031 C 146.15625 13.792969 146.628906 13.707031 147.171875 13.707031 C 147.742188 13.707031 148.226562 13.792969 148.625 13.957031 C 149.03125 14.113281 149.359375 14.339844 149.609375 14.628906 C 149.867188 14.921875 150.054688 15.269531 150.171875 15.675781 C 150.296875 16.074219 150.359375 16.511719 150.359375 16.988281 Z M 148.640625 16.988281 C 148.640625 16.230469 148.515625 15.683594 148.265625 15.347656 C 148.023438 15.003906 147.671875 14.832031 147.203125 14.832031 C 146.710938 14.832031 146.335938 15.003906 146.078125 15.347656 C 145.828125 15.691406 145.703125 16.238281 145.703125 16.988281 C 145.703125 17.363281 145.734375 17.691406 145.796875 17.972656 C 145.867188 18.246094 145.96875 18.46875 146.09375 18.644531 C 146.21875 18.8125 146.367188 18.9375 146.546875 19.019531 C 146.722656 19.105469 146.914062 19.144531 147.125 19.144531 C 147.363281 19.144531 147.578125 19.105469 147.765625 19.019531 C 147.953125 18.9375 148.109375 18.8125 148.234375 18.644531 C 148.367188 18.46875 148.46875 18.246094 148.53125 17.972656 C 148.601562 17.691406 148.640625 17.363281 148.640625 16.988281 Z M 153.984375 20.285156 C 153.472656 20.285156 153.03125 20.207031 152.65625 20.050781 C 152.28125 19.886719 151.96875 19.660156 151.71875 19.378906 C 151.46875 19.097656 151.28125 18.761719 151.15625 18.363281 C 151.03125 17.957031 150.96875 17.511719 150.96875 17.019531 C 150.96875 16.5 151.035156 16.035156 151.171875 15.628906 C 151.304688 15.214844 151.503906 14.863281 151.765625 14.582031 C 152.023438 14.292969 152.34375 14.074219 152.71875 13.925781 C 153.09375 13.78125 153.519531 13.707031 154 13.707031 C 154.414062 13.707031 154.78125 13.765625 155.09375 13.878906 C 155.414062 13.984375 155.691406 14.128906 155.921875 14.316406 C 156.148438 14.503906 156.332031 14.730469 156.46875 14.988281 C 156.613281 15.25 156.71875 15.527344 156.78125 15.816406 L 155.125 15.894531 C 155.070312 15.574219 154.953125 15.316406 154.765625 15.128906 C 154.578125 14.933594 154.3125 14.832031 153.96875 14.832031 C 153.53125 14.832031 153.207031 15.015625 153 15.378906 C 152.800781 15.746094 152.703125 16.269531 152.703125 16.957031 C 152.703125 18.417969 153.132812 19.144531 154 19.144531 C 154.3125 19.144531 154.570312 19.050781 154.78125 18.863281 C 154.988281 18.667969 155.117188 18.371094 155.171875 17.972656 L 156.828125 18.050781 C 156.785156 18.34375 156.691406 18.625 156.546875 18.894531 C 156.410156 19.15625 156.222656 19.390625 155.984375 19.597656 C 155.753906 19.808594 155.46875 19.972656 155.125 20.097656 C 154.789062 20.222656 154.410156 20.285156 153.984375 20.285156 Z M 162.390625 20.160156 L 160.6875 17.285156 L 159.984375 17.785156 L 159.984375 20.160156 L 158.34375 20.160156 L 158.34375 11.457031 L 159.984375 11.457031 L 159.984375 16.441406 L 162.25 13.816406 L 164.015625 13.816406 L 161.796875 16.285156 L 164.1875 20.160156 Z M 170.984375 20.285156 C 170.472656 20.285156 170.03125 20.207031 169.65625 20.050781 C 169.28125 19.886719 168.96875 19.660156 168.71875 19.378906 C 168.46875 19.097656 168.28125 18.761719 168.15625 18.363281 C 168.03125 17.957031 167.96875 17.511719 167.96875 17.019531 C 167.96875 16.5 168.035156 16.035156 168.171875 15.628906 C 168.304688 15.214844 168.503906 14.863281 168.765625 14.582031 C 169.023438 14.292969 169.34375 14.074219 169.71875 13.925781 C 170.09375 13.78125 170.519531 13.707031 171 13.707031 C 171.414062 13.707031 171.78125 13.765625 172.09375 13.878906 C 172.414062 13.984375 172.691406 14.128906 172.921875 14.316406 C 173.148438 14.503906 173.332031 14.730469 173.46875 14.988281 C 173.613281 15.25 173.71875 15.527344 173.78125 15.816406 L 172.125 15.894531 C 172.070312 15.574219 171.953125 15.316406 171.765625 15.128906 C 171.578125 14.933594 171.3125 14.832031 170.96875 14.832031 C 170.53125 14.832031 170.207031 15.015625 170 15.378906 C 169.800781 15.746094 169.703125 16.269531 169.703125 16.957031 C 169.703125 18.417969 170.132812 19.144531 171 19.144531 C 171.3125 19.144531 171.570312 19.050781 171.78125 18.863281 C 171.988281 18.667969 172.117188 18.371094 172.171875 17.972656 L 173.828125 18.050781 C 173.785156 18.34375 173.691406 18.625 173.546875 18.894531 C 173.410156 19.15625 173.222656 19.390625 172.984375 19.597656 C 172.753906 19.808594 172.46875 19.972656 172.125 20.097656 C 171.789062 20.222656 171.410156 20.285156 170.984375 20.285156 Z M 175.34375 20.160156 L 175.34375 11.457031 L 176.984375 11.457031 L 176.984375 20.160156 Z M 178.34375 12.675781 L 178.34375 11.457031 L 179.984375 11.457031 L 179.984375 12.675781 Z M 178.34375 20.160156 L 178.34375 13.816406 L 179.984375 13.816406 L 179.984375 20.160156 Z M 185.078125 20.160156 L 185.078125 16.597656 C 185.078125 16.359375 185.054688 16.136719 185.015625 15.925781 C 184.984375 15.71875 184.929688 15.542969 184.859375 15.394531 C 184.785156 15.25 184.6875 15.136719 184.5625 15.050781 C 184.4375 14.96875 184.285156 14.925781 184.109375 14.925781 C 183.941406 14.925781 183.789062 14.972656 183.65625 15.066406 C 183.519531 15.152344 183.398438 15.277344 183.296875 15.441406 C 183.203125 15.597656 183.125 15.792969 183.0625 16.019531 C 183.007812 16.25 182.984375 16.496094 182.984375 16.753906 L 182.984375 20.160156 L 181.34375 20.160156 L 181.34375 15.238281 C 181.34375 15.105469 181.335938 14.964844 181.328125 14.816406 C 181.328125 14.671875 181.320312 14.535156 181.3125 14.410156 C 181.3125 14.277344 181.304688 14.15625 181.296875 14.050781 C 181.296875 13.949219 181.296875 13.871094 181.296875 13.816406 L 182.859375 13.816406 C 182.867188 13.871094 182.875 13.949219 182.875 14.050781 C 182.882812 14.15625 182.894531 14.269531 182.90625 14.394531 C 182.914062 14.519531 182.921875 14.644531 182.921875 14.769531 C 182.929688 14.894531 182.9375 15 182.9375 15.082031 L 182.96875 15.082031 C 183.164062 14.59375 183.414062 14.238281 183.71875 14.019531 C 184.019531 13.800781 184.382812 13.691406 184.8125 13.691406 C 185.289062 13.691406 185.675781 13.8125 185.96875 14.050781 C 186.269531 14.292969 186.472656 14.636719 186.578125 15.082031 L 186.609375 15.082031 C 186.722656 14.824219 186.84375 14.605469 186.96875 14.425781 C 187.101562 14.25 187.25 14.109375 187.40625 14.003906 C 187.5625 13.890625 187.734375 13.8125 187.921875 13.769531 C 188.109375 13.71875 188.3125 13.691406 188.53125 13.691406 C 188.875 13.691406 189.164062 13.753906 189.40625 13.878906 C 189.644531 14.003906 189.835938 14.175781 189.984375 14.394531 C 190.140625 14.613281 190.25 14.875 190.3125 15.175781 C 190.382812 15.46875 190.421875 15.785156 190.421875 16.128906 L 190.421875 20.160156 L 188.796875 20.160156 L 188.796875 16.597656 C 188.796875 16.359375 188.773438 16.136719 188.734375 15.925781 C 188.703125 15.71875 188.648438 15.542969 188.578125 15.394531 C 188.503906 15.25 188.40625 15.136719 188.28125 15.050781 C 188.15625 14.96875 188.003906 14.925781 187.828125 14.925781 C 187.660156 14.925781 187.507812 14.972656 187.375 15.066406 C 187.25 15.152344 187.132812 15.269531 187.03125 15.425781 C 186.925781 15.574219 186.847656 15.753906 186.796875 15.972656 C 186.742188 16.183594 186.710938 16.421875 186.703125 16.691406 L 186.703125 20.160156 Z M 198.34375 16.972656 C 198.34375 17.453125 198.289062 17.894531 198.1875 18.300781 C 198.09375 18.699219 197.945312 19.046875 197.75 19.347656 C 197.550781 19.640625 197.296875 19.871094 196.984375 20.035156 C 196.679688 20.199219 196.320312 20.285156 195.90625 20.285156 C 195.71875 20.285156 195.53125 20.261719 195.34375 20.222656 C 195.15625 20.179688 194.976562 20.121094 194.8125 20.035156 C 194.644531 19.941406 194.488281 19.824219 194.34375 19.675781 C 194.207031 19.53125 194.085938 19.355469 193.984375 19.144531 L 193.96875 19.144531 C 193.96875 19.230469 193.960938 19.324219 193.953125 19.425781 C 193.953125 19.53125 193.945312 19.636719 193.9375 19.738281 C 193.9375 19.832031 193.929688 19.921875 193.921875 20.003906 C 193.910156 20.078125 193.898438 20.128906 193.890625 20.160156 L 192.296875 20.160156 C 192.304688 20.027344 192.316406 19.832031 192.328125 19.582031 C 192.335938 19.324219 192.34375 19.03125 192.34375 18.707031 L 192.34375 11.457031 L 193.984375 11.457031 L 193.984375 13.894531 C 193.984375 14.019531 193.984375 14.144531 193.984375 14.269531 C 193.984375 14.386719 193.976562 14.488281 193.96875 14.582031 C 193.96875 14.707031 193.96875 14.824219 193.96875 14.925781 L 193.984375 14.925781 C 194.179688 14.488281 194.453125 14.175781 194.796875 13.988281 C 195.148438 13.800781 195.554688 13.707031 196.015625 13.707031 C 196.421875 13.707031 196.769531 13.792969 197.0625 13.957031 C 197.351562 14.113281 197.59375 14.339844 197.78125 14.628906 C 197.96875 14.921875 198.109375 15.265625 198.203125 15.660156 C 198.296875 16.058594 198.34375 16.496094 198.34375 16.972656 Z M 196.625 16.972656 C 196.625 16.253906 196.515625 15.722656 196.296875 15.378906 C 196.085938 15.027344 195.765625 14.847656 195.328125 14.847656 C 195.160156 14.847656 194.992188 14.886719 194.828125 14.957031 C 194.660156 15.019531 194.515625 15.136719 194.390625 15.300781 C 194.265625 15.457031 194.160156 15.675781 194.078125 15.957031 C 194.003906 16.238281 193.96875 16.59375 193.96875 17.019531 C 193.96875 17.4375 194.003906 17.78125 194.078125 18.050781 C 194.160156 18.324219 194.265625 18.542969 194.390625 18.707031 C 194.515625 18.875 194.65625 18.988281 194.8125 19.050781 C 194.976562 19.113281 195.144531 19.144531 195.3125 19.144531 C 195.726562 19.144531 196.050781 18.972656 196.28125 18.628906 C 196.507812 18.285156 196.625 17.734375 196.625 16.972656 Z M 199.34375 12.675781 L 199.34375 11.457031 L 200.984375 11.457031 L 200.984375 12.675781 Z M 199.34375 20.160156 L 199.34375 13.816406 L 200.984375 13.816406 L 200.984375 20.160156 Z M 206.453125 20.160156 L 206.453125 16.597656 C 206.453125 16.359375 206.429688 16.136719 206.390625 15.925781 C 206.347656 15.71875 206.28125 15.542969 206.1875 15.394531 C 206.101562 15.25 205.988281 15.136719 205.84375 15.050781 C 205.695312 14.96875 205.519531 14.925781 205.3125 14.925781 C 205.113281 14.925781 204.929688 14.972656 204.765625 15.066406 C 204.609375 15.152344 204.46875 15.277344 204.34375 15.441406 C 204.226562 15.597656 204.140625 15.792969 204.078125 16.019531 C 204.015625 16.25 203.984375 16.496094 203.984375 16.753906 L 203.984375 20.160156 L 202.34375 20.160156 L 202.34375 15.238281 C 202.34375 15.105469 202.335938 14.964844 202.328125 14.816406 C 202.328125 14.671875 202.320312 14.535156 202.3125 14.410156 C 202.3125 14.277344 202.304688 14.15625 202.296875 14.050781 C 202.296875 13.949219 202.296875 13.871094 202.296875 13.816406 L 203.859375 13.816406 C 203.867188 13.871094 203.875 13.949219 203.875 14.050781 C 203.882812 14.15625 203.894531 14.269531 203.90625 14.394531 C 203.914062 14.519531 203.921875 14.644531 203.921875 14.769531 C 203.929688 14.894531 203.9375 15 203.9375 15.082031 L 203.96875 15.082031 C 204.1875 14.59375 204.460938 14.238281 204.796875 14.019531 C 205.128906 13.800781 205.53125 13.691406 206 13.691406 C 206.382812 13.691406 206.707031 13.753906 206.96875 13.878906 C 207.226562 14.003906 207.441406 14.175781 207.609375 14.394531 C 207.773438 14.613281 207.894531 14.875 207.96875 15.175781 C 208.050781 15.46875 208.09375 15.785156 208.09375 16.128906 L 208.09375 20.160156 Z M 212 22.707031 C 211.570312 22.707031 211.195312 22.664062 210.875 22.582031 C 210.5625 22.496094 210.289062 22.378906 210.0625 22.222656 C 209.84375 22.074219 209.664062 21.898438 209.53125 21.691406 C 209.394531 21.480469 209.300781 21.253906 209.25 21.003906 L 210.90625 20.800781 C 210.957031 21.058594 211.082031 21.257812 211.28125 21.394531 C 211.476562 21.539062 211.734375 21.613281 212.046875 21.613281 C 212.234375 21.613281 212.40625 21.585938 212.5625 21.535156 C 212.726562 21.480469 212.867188 21.386719 212.984375 21.253906 C 213.109375 21.128906 213.203125 20.957031 213.265625 20.738281 C 213.328125 20.527344 213.359375 20.261719 213.359375 19.941406 C 213.359375 19.839844 213.359375 19.730469 213.359375 19.613281 C 213.359375 19.5 213.359375 19.394531 213.359375 19.300781 C 213.367188 19.1875 213.375 19.082031 213.375 18.988281 L 213.359375 18.988281 C 213.171875 19.394531 212.898438 19.691406 212.546875 19.878906 C 212.203125 20.058594 211.789062 20.144531 211.3125 20.144531 C 210.914062 20.144531 210.570312 20.066406 210.28125 19.910156 C 209.988281 19.753906 209.742188 19.535156 209.546875 19.253906 C 209.359375 18.964844 209.21875 18.625 209.125 18.238281 C 209.039062 17.84375 209 17.410156 209 16.941406 C 209 16.453125 209.046875 16.011719 209.140625 15.613281 C 209.234375 15.21875 209.378906 14.878906 209.578125 14.597656 C 209.785156 14.308594 210.039062 14.082031 210.34375 13.925781 C 210.65625 13.769531 211.019531 13.691406 211.4375 13.691406 C 211.863281 13.691406 212.242188 13.785156 212.578125 13.972656 C 212.910156 14.152344 213.171875 14.4375 213.359375 14.832031 L 213.390625 14.832031 C 213.390625 14.761719 213.390625 14.671875 213.390625 14.566406 C 213.398438 14.453125 213.40625 14.347656 213.40625 14.253906 C 213.414062 14.152344 213.425781 14.0625 213.4375 13.988281 C 213.445312 13.90625 213.457031 13.847656 213.46875 13.816406 L 215.03125 13.816406 C 215.019531 13.964844 215.007812 14.160156 215 14.410156 C 215 14.660156 215 14.953125 215 15.285156 L 215 19.972656 C 215 20.429688 214.929688 20.832031 214.796875 21.175781 C 214.660156 21.519531 214.460938 21.800781 214.203125 22.019531 C 213.953125 22.246094 213.640625 22.417969 213.265625 22.535156 C 212.890625 22.648438 212.46875 22.707031 212 22.707031 Z M 213.375 16.894531 C 213.375 16.5 213.332031 16.171875 213.25 15.910156 C 213.175781 15.640625 213.078125 15.425781 212.953125 15.269531 C 212.828125 15.105469 212.679688 14.988281 212.515625 14.925781 C 212.359375 14.863281 212.195312 14.832031 212.03125 14.832031 C 211.820312 14.832031 211.632812 14.875 211.46875 14.957031 C 211.300781 15.03125 211.160156 15.15625 211.046875 15.332031 C 210.941406 15.5 210.859375 15.71875 210.796875 15.988281 C 210.734375 16.25 210.703125 16.566406 210.703125 16.941406 C 210.703125 17.621094 210.8125 18.136719 211.03125 18.488281 C 211.25 18.832031 211.578125 19.003906 212.015625 19.003906 C 212.179688 19.003906 212.34375 18.972656 212.5 18.910156 C 212.664062 18.847656 212.8125 18.738281 212.9375 18.582031 C 213.070312 18.417969 213.175781 18.199219 213.25 17.925781 C 213.332031 17.65625 213.375 17.3125 213.375 16.894531 Z M 134.5 9.296875 "/>
<path style="fill-rule:nonzero;fill:rgb(89.019608%,54.509804%,51.764706%);fill-opacity:1;stroke-width:2;stroke-linecap:butt;stroke-linejoin:miter;stroke:rgb(100%,100%,100%);stroke-opacity:1;stroke-miterlimit:10;" d="M 225.5 10 L 265.5 10 L 265.5 22 L 225.5 22 Z M 225.5 10 "/>
<path style=" stroke:none;fill-rule:nonzero;fill:rgb(40%,40%,40%);fill-opacity:1;" d="M 276.15625 18.910156 C 276.476562 18.910156 276.757812 18.871094 277 18.785156 C 277.238281 18.691406 277.441406 18.574219 277.609375 18.425781 C 277.785156 18.269531 277.929688 18.097656 278.046875 17.910156 C 278.160156 17.722656 278.253906 17.535156 278.328125 17.347656 L 279.84375 17.910156 C 279.71875 18.214844 279.554688 18.511719 279.359375 18.800781 C 279.171875 19.082031 278.925781 19.332031 278.625 19.550781 C 278.332031 19.769531 277.984375 19.949219 277.578125 20.082031 C 277.179688 20.214844 276.707031 20.285156 276.15625 20.285156 C 275.445312 20.285156 274.828125 20.179688 274.296875 19.972656 C 273.773438 19.753906 273.34375 19.453125 273 19.066406 C 272.65625 18.683594 272.398438 18.230469 272.234375 17.707031 C 272.078125 17.1875 272 16.613281 272 15.988281 C 272 15.34375 272.078125 14.765625 272.234375 14.253906 C 272.398438 13.734375 272.648438 13.292969 272.984375 12.925781 C 273.328125 12.5625 273.753906 12.28125 274.265625 12.082031 C 274.785156 11.886719 275.390625 11.785156 276.078125 11.785156 C 276.617188 11.785156 277.09375 11.84375 277.5 11.957031 C 277.90625 12.0625 278.253906 12.21875 278.546875 12.425781 C 278.835938 12.636719 279.078125 12.878906 279.265625 13.160156 C 279.460938 13.433594 279.617188 13.738281 279.734375 14.082031 L 278.203125 14.488281 C 278.148438 14.3125 278.066406 14.144531 277.953125 13.988281 C 277.835938 13.824219 277.691406 13.675781 277.515625 13.550781 C 277.347656 13.425781 277.144531 13.328125 276.90625 13.253906 C 276.675781 13.183594 276.414062 13.144531 276.125 13.144531 C 275.695312 13.144531 275.332031 13.214844 275.03125 13.347656 C 274.738281 13.484375 274.492188 13.675781 274.296875 13.925781 C 274.109375 14.175781 273.96875 14.480469 273.875 14.832031 C 273.78125 15.175781 273.734375 15.5625 273.734375 15.988281 C 273.734375 16.425781 273.78125 16.824219 273.875 17.175781 C 273.96875 17.53125 274.109375 17.839844 274.296875 18.097656 C 274.492188 18.359375 274.742188 18.5625 275.046875 18.707031 C 275.359375 18.84375 275.726562 18.910156 276.15625 18.910156 Z M 287.359375 16.988281 C 287.359375 17.46875 287.289062 17.910156 287.15625 18.316406 C 287.019531 18.714844 286.816406 19.058594 286.546875 19.347656 C 286.285156 19.640625 285.953125 19.871094 285.546875 20.035156 C 285.140625 20.199219 284.671875 20.285156 284.140625 20.285156 C 283.617188 20.285156 283.160156 20.207031 282.765625 20.050781 C 282.378906 19.886719 282.050781 19.65625 281.78125 19.363281 C 281.507812 19.074219 281.304688 18.730469 281.171875 18.332031 C 281.035156 17.925781 280.96875 17.480469 280.96875 16.988281 C 280.96875 16.511719 281.03125 16.074219 281.15625 15.675781 C 281.289062 15.269531 281.488281 14.921875 281.75 14.628906 C 282.019531 14.339844 282.351562 14.113281 282.75 13.957031 C 283.15625 13.792969 283.628906 13.707031 284.171875 13.707031 C 284.742188 13.707031 285.226562 13.792969 285.625 13.957031 C 286.03125 14.113281 286.359375 14.339844 286.609375 14.628906 C 286.867188 14.921875 287.054688 15.269531 287.171875 15.675781 C 287.296875 16.074219 287.359375 16.511719 287.359375 16.988281 Z M 285.640625 16.988281 C 285.640625 16.230469 285.515625 15.683594 285.265625 15.347656 C 285.023438 15.003906 284.671875 14.832031 284.203125 14.832031 C 283.710938 14.832031 283.335938 15.003906 283.078125 15.347656 C 282.828125 15.691406 282.703125 16.238281 282.703125 16.988281 C 282.703125 17.363281 282.734375 17.691406 282.796875 17.972656 C 282.867188 18.246094 282.96875 18.46875 283.09375 18.644531 C 283.21875 18.8125 283.367188 18.9375 283.546875 19.019531 C 283.722656 19.105469 283.914062 19.144531 284.125 19.144531 C 284.363281 19.144531 284.578125 19.105469 284.765625 19.019531 C 284.953125 18.9375 285.109375 18.8125 285.234375 18.644531 C 285.367188 18.46875 285.46875 18.246094 285.53125 17.972656 C 285.601562 17.691406 285.640625 17.363281 285.640625 16.988281 Z M 292.453125 20.160156 C 292.441406 20.128906 292.429688 20.078125 292.421875 20.003906 C 292.410156 19.921875 292.398438 19.828125 292.390625 19.722656 C 292.378906 19.621094 292.367188 19.515625 292.359375 19.410156 C 292.359375 19.308594 292.359375 19.214844 292.359375 19.128906 L 292.328125 19.128906 C 292.140625 19.535156 291.875 19.832031 291.53125 20.019531 C 291.1875 20.195312 290.78125 20.285156 290.3125 20.285156 C 289.90625 20.285156 289.554688 20.199219 289.265625 20.035156 C 288.984375 19.871094 288.742188 19.640625 288.546875 19.347656 C 288.359375 19.058594 288.21875 18.714844 288.125 18.316406 C 288.039062 17.910156 288 17.46875 288 16.988281 C 288 16.511719 288.046875 16.074219 288.140625 15.675781 C 288.234375 15.269531 288.378906 14.921875 288.578125 14.628906 C 288.773438 14.339844 289.023438 14.113281 289.328125 13.957031 C 289.640625 13.792969 290.007812 13.707031 290.4375 13.707031 C 290.632812 13.707031 290.828125 13.730469 291.015625 13.769531 C 291.210938 13.8125 291.394531 13.878906 291.5625 13.972656 C 291.726562 14.058594 291.875 14.171875 292 14.316406 C 292.132812 14.453125 292.25 14.621094 292.34375 14.816406 L 292.359375 14.816406 C 292.359375 14.785156 292.359375 14.734375 292.359375 14.660156 C 292.359375 14.578125 292.359375 14.488281 292.359375 14.394531 C 292.359375 14.292969 292.351562 14.1875 292.34375 14.082031 C 292.34375 13.980469 292.34375 13.878906 292.34375 13.785156 L 292.34375 11.457031 L 294 11.457031 L 294 18.769531 C 294 19.082031 294.003906 19.359375 294.015625 19.597656 C 294.023438 19.839844 294.035156 20.027344 294.046875 20.160156 Z M 292.375 16.957031 C 292.375 16.542969 292.332031 16.199219 292.25 15.925781 C 292.175781 15.644531 292.070312 15.425781 291.9375 15.269531 C 291.8125 15.105469 291.664062 14.988281 291.5 14.925781 C 291.34375 14.855469 291.179688 14.816406 291.015625 14.816406 C 290.804688 14.816406 290.617188 14.859375 290.453125 14.941406 C 290.296875 15.027344 290.160156 15.15625 290.046875 15.332031 C 289.929688 15.511719 289.84375 15.734375 289.78125 16.003906 C 289.726562 16.277344 289.703125 16.605469 289.703125 16.988281 C 289.703125 18.425781 290.132812 19.144531 291 19.144531 C 291.164062 19.144531 291.332031 19.113281 291.5 19.050781 C 291.664062 18.980469 291.8125 18.859375 291.9375 18.691406 C 292.0625 18.527344 292.164062 18.300781 292.25 18.019531 C 292.332031 17.730469 292.375 17.375 292.375 16.957031 Z M 295.34375 12.675781 L 295.34375 11.457031 L 296.984375 11.457031 L 296.984375 12.675781 Z M 295.34375 20.160156 L 295.34375 13.816406 L 296.984375 13.816406 L 296.984375 20.160156 Z M 302.453125 20.160156 L 302.453125 16.597656 C 302.453125 16.359375 302.429688 16.136719 302.390625 15.925781 C 302.347656 15.71875 302.28125 15.542969 302.1875 15.394531 C 302.101562 15.25 301.988281 15.136719 301.84375 15.050781 C 301.695312 14.96875 301.519531 14.925781 301.3125 14.925781 C 301.113281 14.925781 300.929688 14.972656 300.765625 15.066406 C 300.609375 15.152344 300.46875 15.277344 300.34375 15.441406 C 300.226562 15.597656 300.140625 15.792969 300.078125 16.019531 C 300.015625 16.25 299.984375 16.496094 299.984375 16.753906 L 299.984375 20.160156 L 298.34375 20.160156 L 298.34375 15.238281 C 298.34375 15.105469 298.335938 14.964844 298.328125 14.816406 C 298.328125 14.671875 298.320312 14.535156 298.3125 14.410156 C 298.3125 14.277344 298.304688 14.15625 298.296875 14.050781 C 298.296875 13.949219 298.296875 13.871094 298.296875 13.816406 L 299.859375 13.816406 C 299.867188 13.871094 299.875 13.949219 299.875 14.050781 C 299.882812 14.15625 299.894531 14.269531 299.90625 14.394531 C 299.914062 14.519531 299.921875 14.644531 299.921875 14.769531 C 299.929688 14.894531 299.9375 15 299.9375 15.082031 L 299.96875 15.082031 C 300.1875 14.59375 300.460938 14.238281 300.796875 14.019531 C 301.128906 13.800781 301.53125 13.691406 302 13.691406 C 302.382812 13.691406 302.707031 13.753906 302.96875 13.878906 C 303.226562 14.003906 303.441406 14.175781 303.609375 14.394531 C 303.773438 14.613281 303.894531 14.875 303.96875 15.175781 C 304.050781 15.46875 304.09375 15.785156 304.09375 16.128906 L 304.09375 20.160156 Z M 308 22.707031 C 307.570312 22.707031 307.195312 22.664062 306.875 22.582031 C 306.5625 22.496094 306.289062 22.378906 306.0625 22.222656 C 305.84375 22.074219 305.664062 21.898438 305.53125 21.691406 C 305.394531 21.480469 305.300781 21.253906 305.25 21.003906 L 306.90625 20.800781 C 306.957031 21.058594 307.082031 21.257812 307.28125 21.394531 C 307.476562 21.539062 307.734375 21.613281 308.046875 21.613281 C 308.234375 21.613281 308.40625 21.585938 308.5625 21.535156 C 308.726562 21.480469 308.867188 21.386719 308.984375 21.253906 C 309.109375 21.128906 309.203125 20.957031 309.265625 20.738281 C 309.328125 20.527344 309.359375 20.261719 309.359375 19.941406 C 309.359375 19.839844 309.359375 19.730469 309.359375 19.613281 C 309.359375 19.5 309.359375 19.394531 309.359375 19.300781 C 309.367188 19.1875 309.375 19.082031 309.375 18.988281 L 309.359375 18.988281 C 309.171875 19.394531 308.898438 19.691406 308.546875 19.878906 C 308.203125 20.058594 307.789062 20.144531 307.3125 20.144531 C 306.914062 20.144531 306.570312 20.066406 306.28125 19.910156 C 305.988281 19.753906 305.742188 19.535156 305.546875 19.253906 C 305.359375 18.964844 305.21875 18.625 305.125 18.238281 C 305.039062 17.84375 305 17.410156 305 16.941406 C 305 16.453125 305.046875 16.011719 305.140625 15.613281 C 305.234375 15.21875 305.378906 14.878906 305.578125 14.597656 C 305.785156 14.308594 306.039062 14.082031 306.34375 13.925781 C 306.65625 13.769531 307.019531 13.691406 307.4375 13.691406 C 307.863281 13.691406 308.242188 13.785156 308.578125 13.972656 C 308.910156 14.152344 309.171875 14.4375 309.359375 14.832031 L 309.390625 14.832031 C 309.390625 14.761719 309.390625 14.671875 309.390625 14.566406 C 309.398438 14.453125 309.40625 14.347656 309.40625 14.253906 C 309.414062 14.152344 309.425781 14.0625 309.4375 13.988281 C 309.445312 13.90625 309.457031 13.847656 309.46875 13.816406 L 311.03125 13.816406 C 311.019531 13.964844 311.007812 14.160156 311 14.410156 C 311 14.660156 311 14.953125 311 15.285156 L 311 19.972656 C 311 20.429688 310.929688 20.832031 310.796875 21.175781 C 310.660156 21.519531 310.460938 21.800781 310.203125 22.019531 C 309.953125 22.246094 309.640625 22.417969 309.265625 22.535156 C 308.890625 22.648438 308.46875 22.707031 308 22.707031 Z M 309.375 16.894531 C 309.375 16.5 309.332031 16.171875 309.25 15.910156 C 309.175781 15.640625 309.078125 15.425781 308.953125 15.269531 C 308.828125 15.105469 308.679688 14.988281 308.515625 14.925781 C 308.359375 14.863281 308.195312 14.832031 308.03125 14.832031 C 307.820312 14.832031 307.632812 14.875 307.46875 14.957031 C 307.300781 15.03125 307.160156 15.15625 307.046875 15.332031 C 306.941406 15.5 306.859375 15.71875 306.796875 15.988281 C 306.734375 16.25 306.703125 16.566406 306.703125 16.941406 C 306.703125 17.621094 306.8125 18.136719 307.03125 18.488281 C 307.25 18.832031 307.578125 19.003906 308.015625 19.003906 C 308.179688 19.003906 308.34375 18.972656 308.5 18.910156 C 308.664062 18.847656 308.8125 18.738281 308.9375 18.582031 C 309.070312 18.417969 309.175781 18.199219 309.25 17.925781 C 309.332031 17.65625 309.375 17.3125 309.375 16.894531 Z M 271.5 9.296875 "/>
<path style="fill-rule:nonzero;fill:rgb(12.54902%,36.862745%,44.313725%);fill-opacity:1;stroke-width:2;stroke-linecap:butt;stroke-linejoin:miter;stroke:rgb(100%,100%,100%);stroke-opacity:1;stroke-miterlimit:10;" d="M 38 32 L 78 32 L 78 44 L 38 44 Z M 38 32 "/>
<path style=" stroke:none;fill-rule:nonzero;fill:rgb(40%,40%,40%);fill-opacity:1;" d="M 92.15625 37.972656 C 92.15625 38.660156 92.050781 39.265625 91.84375 39.785156 C 91.644531 40.308594 91.363281 40.746094 91 41.097656 C 90.644531 41.441406 90.222656 41.707031 89.734375 41.894531 C 89.242188 42.074219 88.710938 42.160156 88.140625 42.160156 L 84.796875 42.160156 L 84.796875 33.910156 L 87.796875 33.910156 C 88.429688 33.910156 89.015625 33.988281 89.546875 34.144531 C 90.085938 34.300781 90.550781 34.546875 90.9375 34.878906 C 91.320312 35.214844 91.617188 35.636719 91.828125 36.144531 C 92.046875 36.65625 92.15625 37.265625 92.15625 37.972656 Z M 90.421875 37.972656 C 90.421875 37.496094 90.351562 37.082031 90.21875 36.738281 C 90.09375 36.394531 89.910156 36.113281 89.671875 35.894531 C 89.441406 35.667969 89.160156 35.5 88.828125 35.394531 C 88.503906 35.292969 88.144531 35.238281 87.75 35.238281 L 86.53125 35.238281 L 86.53125 40.816406 L 88 40.816406 C 88.34375 40.816406 88.660156 40.761719 88.953125 40.644531 C 89.253906 40.519531 89.507812 40.339844 89.71875 40.097656 C 89.9375 39.859375 90.109375 39.5625 90.234375 39.207031 C 90.359375 38.855469 90.421875 38.441406 90.421875 37.972656 Z M 93.84375 34.675781 L 93.84375 33.457031 L 95.484375 33.457031 L 95.484375 34.675781 Z M 93.84375 42.160156 L 93.84375 35.816406 L 95.484375 35.816406 L 95.484375 42.160156 Z M 100.953125 42.160156 L 100.953125 38.597656 C 100.953125 38.359375 100.929688 38.136719 100.890625 37.925781 C 100.847656 37.71875 100.78125 37.542969 100.6875 37.394531 C 100.601562 37.25 100.488281 37.136719 100.34375 37.050781 C 100.195312 36.96875 100.019531 36.925781 99.8125 36.925781 C 99.613281 36.925781 99.429688 36.972656 99.265625 37.066406 C 99.109375 37.152344 98.96875 37.277344 98.84375 37.441406 C 98.726562 37.597656 98.640625 37.792969 98.578125 38.019531 C 98.515625 38.25 98.484375 38.496094 98.484375 38.753906 L 98.484375 42.160156 L 96.84375 42.160156 L 96.84375 37.238281 C 96.84375 37.105469 96.835938 36.964844 96.828125 36.816406 C 96.828125 36.671875 96.820312 36.535156 96.8125 36.410156 C 96.8125 36.277344 96.804688 36.15625 96.796875 36.050781 C 96.796875 35.949219 96.796875 35.871094 96.796875 35.816406 L 98.359375 35.816406 C 98.367188 35.871094 98.375 35.949219 98.375 36.050781 C 98.382812 36.15625 98.394531 36.269531 98.40625 36.394531 C 98.414062 36.519531 98.421875 36.644531 98.421875 36.769531 C 98.429688 36.894531 98.4375 37 98.4375 37.082031 L 98.46875 37.082031 C 98.6875 36.59375 98.960938 36.238281 99.296875 36.019531 C 99.628906 35.800781 100.03125 35.691406 100.5 35.691406 C 100.882812 35.691406 101.207031 35.753906 101.46875 35.878906 C 101.726562 36.003906 101.941406 36.175781 102.109375 36.394531 C 102.273438 36.613281 102.394531 36.875 102.46875 37.175781 C 102.550781 37.46875 102.59375 37.785156 102.59375 38.128906 L 102.59375 42.160156 Z M 107.953125 42.160156 L 107.953125 38.597656 C 107.953125 38.359375 107.929688 38.136719 107.890625 37.925781 C 107.847656 37.71875 107.78125 37.542969 107.6875 37.394531 C 107.601562 37.25 107.488281 37.136719 107.34375 37.050781 C 107.195312 36.96875 107.019531 36.925781 106.8125 36.925781 C 106.613281 36.925781 106.429688 36.972656 106.265625 37.066406 C 106.109375 37.152344 105.96875 37.277344 105.84375 37.441406 C 105.726562 37.597656 105.640625 37.792969 105.578125 38.019531 C 105.515625 38.25 105.484375 38.496094 105.484375 38.753906 L 105.484375 42.160156 L 103.84375 42.160156 L 103.84375 37.238281 C 103.84375 37.105469 103.835938 36.964844 103.828125 36.816406 C 103.828125 36.671875 103.820312 36.535156 103.8125 36.410156 C 103.8125 36.277344 103.804688 36.15625 103.796875 36.050781 C 103.796875 35.949219 103.796875 35.871094 103.796875 35.816406 L 105.359375 35.816406 C 105.367188 35.871094 105.375 35.949219 105.375 36.050781 C 105.382812 36.15625 105.394531 36.269531 105.40625 36.394531 C 105.414062 36.519531 105.421875 36.644531 105.421875 36.769531 C 105.429688 36.894531 105.4375 37 105.4375 37.082031 L 105.46875 37.082031 C 105.6875 36.59375 105.960938 36.238281 106.296875 36.019531 C 106.628906 35.800781 107.03125 35.691406 107.5 35.691406 C 107.882812 35.691406 108.207031 35.753906 108.46875 35.878906 C 108.726562 36.003906 108.941406 36.175781 109.109375 36.394531 C 109.273438 36.613281 109.394531 36.875 109.46875 37.175781 C 109.550781 37.46875 109.59375 37.785156 109.59375 38.128906 L 109.59375 42.160156 Z M 113.4375 42.285156 C 112.976562 42.285156 112.566406 42.214844 112.203125 42.082031 C 111.835938 41.949219 111.523438 41.746094 111.265625 41.472656 C 111.003906 41.191406 110.804688 40.84375 110.671875 40.425781 C 110.535156 40.011719 110.46875 39.519531 110.46875 38.957031 C 110.46875 38.355469 110.546875 37.847656 110.703125 37.441406 C 110.867188 37.027344 111.085938 36.6875 111.359375 36.425781 C 111.640625 36.167969 111.957031 35.984375 112.3125 35.878906 C 112.675781 35.765625 113.054688 35.707031 113.453125 35.707031 C 113.953125 35.707031 114.378906 35.796875 114.734375 35.972656 C 115.085938 36.140625 115.378906 36.378906 115.609375 36.691406 C 115.835938 37.003906 116.003906 37.378906 116.109375 37.816406 C 116.210938 38.253906 116.265625 38.734375 116.265625 39.253906 L 116.265625 39.300781 L 112.203125 39.300781 C 112.203125 39.574219 112.222656 39.824219 112.265625 40.050781 C 112.316406 40.28125 112.394531 40.480469 112.5 40.644531 C 112.601562 40.8125 112.738281 40.941406 112.90625 41.035156 C 113.070312 41.128906 113.273438 41.175781 113.515625 41.175781 C 113.804688 41.175781 114.039062 41.113281 114.21875 40.988281 C 114.40625 40.863281 114.539062 40.675781 114.625 40.425781 L 116.171875 40.550781 C 116.097656 40.730469 116 40.921875 115.875 41.128906 C 115.75 41.328125 115.578125 41.515625 115.359375 41.691406 C 115.148438 41.859375 114.890625 42 114.578125 42.113281 C 114.265625 42.226562 113.882812 42.285156 113.4375 42.285156 Z M 113.4375 36.738281 C 113.269531 36.738281 113.113281 36.769531 112.96875 36.832031 C 112.820312 36.886719 112.691406 36.972656 112.578125 37.097656 C 112.472656 37.222656 112.382812 37.386719 112.3125 37.582031 C 112.25 37.769531 112.210938 38 112.203125 38.269531 L 114.671875 38.269531 C 114.640625 37.761719 114.515625 37.378906 114.296875 37.128906 C 114.085938 36.871094 113.800781 36.738281 113.4375 36.738281 Z M 117.84375 42.160156 L 117.84375 37.300781 C 117.84375 37.167969 117.835938 37.027344 117.828125 36.878906 C 117.828125 36.722656 117.820312 36.578125 117.8125 36.441406 C 117.8125 36.296875 117.804688 36.171875 117.796875 36.066406 C 117.796875 35.953125 117.796875 35.871094 117.796875 35.816406 L 119.359375 35.816406 C 119.367188 35.871094 119.375 35.953125 119.375 36.066406 C 119.382812 36.183594 119.394531 36.308594 119.40625 36.441406 C 119.414062 36.578125 119.421875 36.714844 119.421875 36.847656 C 119.429688 36.984375 119.4375 37.09375 119.4375 37.175781 L 119.46875 37.175781 C 119.539062 36.949219 119.617188 36.746094 119.703125 36.566406 C 119.785156 36.378906 119.882812 36.222656 120 36.097656 C 120.113281 35.964844 120.25 35.863281 120.40625 35.800781 C 120.5625 35.730469 120.753906 35.691406 120.984375 35.691406 C 121.078125 35.691406 121.171875 35.703125 121.265625 35.722656 C 121.359375 35.746094 121.429688 35.765625 121.484375 35.785156 L 121.484375 37.160156 C 121.378906 37.140625 121.273438 37.121094 121.171875 37.097656 C 121.066406 37.078125 120.9375 37.066406 120.78125 37.066406 C 120.375 37.066406 120.054688 37.234375 119.828125 37.566406 C 119.597656 37.902344 119.484375 38.394531 119.484375 39.050781 L 119.484375 42.160156 Z M 127.5625 40.660156 L 128.78125 35.816406 L 130.546875 35.816406 L 131.75 40.660156 L 132.828125 35.816406 L 134.359375 35.816406 L 132.6875 42.160156 L 130.953125 42.160156 L 129.671875 36.988281 L 128.34375 42.160156 L 126.609375 42.160156 L 124.96875 35.816406 L 126.515625 35.816406 Z M 134.84375 34.675781 L 134.84375 33.457031 L 136.484375 33.457031 L 136.484375 34.675781 Z M 134.84375 42.160156 L 134.84375 35.816406 L 136.484375 35.816406 L 136.484375 42.160156 Z M 139.46875 42.269531 C 138.976562 42.269531 138.601562 42.140625 138.34375 41.878906 C 138.082031 41.609375 137.953125 41.207031 137.953125 40.675781 L 137.953125 36.925781 L 137.140625 36.925781 L 137.140625 35.816406 L 138.03125 35.816406 L 138.546875 34.332031 L 139.578125 34.332031 L 139.578125 35.816406 L 140.78125 35.816406 L 140.78125 36.925781 L 139.578125 36.925781 L 139.578125 40.222656 C 139.578125 40.535156 139.632812 40.765625 139.75 40.910156 C 139.875 41.058594 140.054688 41.128906 140.296875 41.128906 C 140.398438 41.128906 140.492188 41.125 140.578125 41.113281 C 140.660156 41.09375 140.75 41.074219 140.84375 41.050781 L 140.84375 42.066406 C 140.644531 42.128906 140.429688 42.175781 140.203125 42.207031 C 139.972656 42.246094 139.726562 42.269531 139.46875 42.269531 Z M 143.46875 37.082031 C 143.6875 36.605469 143.960938 36.253906 144.296875 36.035156 C 144.628906 35.816406 145.03125 35.707031 145.5 35.707031 C 145.882812 35.707031 146.207031 35.769531 146.46875 35.894531 C 146.726562 36.019531 146.941406 36.191406 147.109375 36.410156 C 147.273438 36.628906 147.394531 36.890625 147.46875 37.191406 C 147.550781 37.484375 147.59375 37.800781 147.59375 38.144531 L 147.59375 42.160156 L 145.953125 42.160156 L 145.953125 38.613281 C 145.953125 38.363281 145.929688 38.140625 145.890625 37.941406 C 145.847656 37.734375 145.78125 37.558594 145.6875 37.410156 C 145.601562 37.265625 145.488281 37.152344 145.34375 37.066406 C 145.195312 36.984375 145.019531 36.941406 144.8125 36.941406 C 144.613281 36.941406 144.429688 36.988281 144.265625 37.082031 C 144.109375 37.167969 143.96875 37.292969 143.84375 37.457031 C 143.726562 37.613281 143.640625 37.808594 143.578125 38.035156 C 143.515625 38.253906 143.484375 38.5 143.484375 38.769531 L 143.484375 42.160156 L 141.84375 42.160156 L 141.84375 33.457031 L 143.484375 33.457031 L 143.484375 35.832031 C 143.484375 35.957031 143.476562 36.089844 143.46875 36.222656 C 143.46875 36.347656 143.460938 36.46875 143.453125 36.582031 C 143.453125 36.6875 143.445312 36.785156 143.4375 36.878906 C 143.4375 36.964844 143.4375 37.03125 143.4375 37.082031 Z M 153.765625 36.925781 L 153.765625 42.160156 L 152.125 42.160156 L 152.125 36.925781 L 151.203125 36.925781 L 151.203125 35.816406 L 152.125 35.816406 L 152.125 35.160156 C 152.125 34.921875 152.15625 34.699219 152.21875 34.488281 C 152.28125 34.28125 152.378906 34.105469 152.515625 33.957031 C 152.660156 33.800781 152.847656 33.683594 153.078125 33.597656 C 153.316406 33.503906 153.617188 33.457031 153.984375 33.457031 C 154.171875 33.457031 154.351562 33.46875 154.53125 33.488281 C 154.707031 33.511719 154.867188 33.53125 155.015625 33.550781 L 155.015625 34.613281 C 154.953125 34.605469 154.875 34.59375 154.78125 34.582031 C 154.695312 34.574219 154.617188 34.566406 154.546875 34.566406 C 154.390625 34.566406 154.257812 34.582031 154.15625 34.613281 C 154.0625 34.644531 153.984375 34.691406 153.921875 34.753906 C 153.867188 34.816406 153.828125 34.894531 153.796875 34.988281 C 153.773438 35.082031 153.765625 35.191406 153.765625 35.316406 L 153.765625 35.816406 L 155.015625 35.816406 L 155.015625 36.925781 Z M 155.84375 42.160156 L 155.84375 37.300781 C 155.84375 37.167969 155.835938 37.027344 155.828125 36.878906 C 155.828125 36.722656 155.820312 36.578125 155.8125 36.441406 C 155.8125 36.296875 155.804688 36.171875 155.796875 36.066406 C 155.796875 35.953125 155.796875 35.871094 155.796875 35.816406 L 157.359375 35.816406 C 157.367188 35.871094 157.375 35.953125 157.375 36.066406 C 157.382812 36.183594 157.394531 36.308594 157.40625 36.441406 C 157.414062 36.578125 157.421875 36.714844 157.421875 36.847656 C 157.429688 36.984375 157.4375 37.09375 157.4375 37.175781 L 157.46875 37.175781 C 157.539062 36.949219 157.617188 36.746094 157.703125 36.566406 C 157.785156 36.378906 157.882812 36.222656 158 36.097656 C 158.113281 35.964844 158.25 35.863281 158.40625 35.800781 C 158.5625 35.730469 158.753906 35.691406 158.984375 35.691406 C 159.078125 35.691406 159.171875 35.703125 159.265625 35.722656 C 159.359375 35.746094 159.429688 35.765625 159.484375 35.785156 L 159.484375 37.160156 C 159.378906 37.140625 159.273438 37.121094 159.171875 37.097656 C 159.066406 37.078125 158.9375 37.066406 158.78125 37.066406 C 158.375 37.066406 158.054688 37.234375 157.828125 37.566406 C 157.597656 37.902344 157.484375 38.394531 157.484375 39.050781 L 157.484375 42.160156 Z M 160.84375 34.675781 L 160.84375 33.457031 L 162.484375 33.457031 L 162.484375 34.675781 Z M 160.84375 42.160156 L 160.84375 35.816406 L 162.484375 35.816406 L 162.484375 42.160156 Z M 166.4375 42.285156 C 165.976562 42.285156 165.566406 42.214844 165.203125 42.082031 C 164.835938 41.949219 164.523438 41.746094 164.265625 41.472656 C 164.003906 41.191406 163.804688 40.84375 163.671875 40.425781 C 163.535156 40.011719 163.46875 39.519531 163.46875 38.957031 C 163.46875 38.355469 163.546875 37.847656 163.703125 37.441406 C 163.867188 37.027344 164.085938 36.6875 164.359375 36.425781 C 164.640625 36.167969 164.957031 35.984375 165.3125 35.878906 C 165.675781 35.765625 166.054688 35.707031 166.453125 35.707031 C 166.953125 35.707031 167.378906 35.796875 167.734375 35.972656 C 168.085938 36.140625 168.378906 36.378906 168.609375 36.691406 C 168.835938 37.003906 169.003906 37.378906 169.109375 37.816406 C 169.210938 38.253906 169.265625 38.734375 169.265625 39.253906 L 169.265625 39.300781 L 165.203125 39.300781 C 165.203125 39.574219 165.222656 39.824219 165.265625 40.050781 C 165.316406 40.28125 165.394531 40.480469 165.5 40.644531 C 165.601562 40.8125 165.738281 40.941406 165.90625 41.035156 C 166.070312 41.128906 166.273438 41.175781 166.515625 41.175781 C 166.804688 41.175781 167.039062 41.113281 167.21875 40.988281 C 167.40625 40.863281 167.539062 40.675781 167.625 40.425781 L 169.171875 40.550781 C 169.097656 40.730469 169 40.921875 168.875 41.128906 C 168.75 41.328125 168.578125 41.515625 168.359375 41.691406 C 168.148438 41.859375 167.890625 42 167.578125 42.113281 C 167.265625 42.226562 166.882812 42.285156 166.4375 42.285156 Z M 166.4375 36.738281 C 166.269531 36.738281 166.113281 36.769531 165.96875 36.832031 C 165.820312 36.886719 165.691406 36.972656 165.578125 37.097656 C 165.472656 37.222656 165.382812 37.386719 165.3125 37.582031 C 165.25 37.769531 165.210938 38 165.203125 38.269531 L 167.671875 38.269531 C 167.640625 37.761719 167.515625 37.378906 167.296875 37.128906 C 167.085938 36.871094 166.800781 36.738281 166.4375 36.738281 Z M 174.953125 42.160156 L 174.953125 38.597656 C 174.953125 38.359375 174.929688 38.136719 174.890625 37.925781 C 174.847656 37.71875 174.78125 37.542969 174.6875 37.394531 C 174.601562 37.25 174.488281 37.136719 174.34375 37.050781 C 174.195312 36.96875 174.019531 36.925781 173.8125 36.925781 C 173.613281 36.925781 173.429688 36.972656 173.265625 37.066406 C 173.109375 37.152344 172.96875 37.277344 172.84375 37.441406 C 172.726562 37.597656 172.640625 37.792969 172.578125 38.019531 C 172.515625 38.25 172.484375 38.496094 172.484375 38.753906 L 172.484375 42.160156 L 170.84375 42.160156 L 170.84375 37.238281 C 170.84375 37.105469 170.835938 36.964844 170.828125 36.816406 C 170.828125 36.671875 170.820312 36.535156 170.8125 36.410156 C 170.8125 36.277344 170.804688 36.15625 170.796875 36.050781 C 170.796875 35.949219 170.796875 35.871094 170.796875 35.816406 L 172.359375 35.816406 C 172.367188 35.871094 172.375 35.949219 172.375 36.050781 C 172.382812 36.15625 172.394531 36.269531 172.40625 36.394531 C 172.414062 36.519531 172.421875 36.644531 172.421875 36.769531 C 172.429688 36.894531 172.4375 37 172.4375 37.082031 L 172.46875 37.082031 C 172.6875 36.59375 172.960938 36.238281 173.296875 36.019531 C 173.628906 35.800781 174.03125 35.691406 174.5 35.691406 C 174.882812 35.691406 175.207031 35.753906 175.46875 35.878906 C 175.726562 36.003906 175.941406 36.175781 176.109375 36.394531 C 176.273438 36.613281 176.394531 36.875 176.46875 37.175781 C 176.550781 37.46875 176.59375 37.785156 176.59375 38.128906 L 176.59375 42.160156 Z M 181.953125 42.160156 C 181.941406 42.128906 181.929688 42.078125 181.921875 42.003906 C 181.910156 41.921875 181.898438 41.828125 181.890625 41.722656 C 181.878906 41.621094 181.867188 41.515625 181.859375 41.410156 C 181.859375 41.308594 181.859375 41.214844 181.859375 41.128906 L 181.828125 41.128906 C 181.640625 41.535156 181.375 41.832031 181.03125 42.019531 C 180.6875 42.195312 180.28125 42.285156 179.8125 42.285156 C 179.40625 42.285156 179.054688 42.199219 178.765625 42.035156 C 178.484375 41.871094 178.242188 41.640625 178.046875 41.347656 C 177.859375 41.058594 177.71875 40.714844 177.625 40.316406 C 177.539062 39.910156 177.5 39.46875 177.5 38.988281 C 177.5 38.511719 177.546875 38.074219 177.640625 37.675781 C 177.734375 37.269531 177.878906 36.921875 178.078125 36.628906 C 178.273438 36.339844 178.523438 36.113281 178.828125 35.957031 C 179.140625 35.792969 179.507812 35.707031 179.9375 35.707031 C 180.132812 35.707031 180.328125 35.730469 180.515625 35.769531 C 180.710938 35.8125 180.894531 35.878906 181.0625 35.972656 C 181.226562 36.058594 181.375 36.171875 181.5 36.316406 C 181.632812 36.453125 181.75 36.621094 181.84375 36.816406 L 181.859375 36.816406 C 181.859375 36.785156 181.859375 36.734375 181.859375 36.660156 C 181.859375 36.578125 181.859375 36.488281 181.859375 36.394531 C 181.859375 36.292969 181.851562 36.1875 181.84375 36.082031 C 181.84375 35.980469 181.84375 35.878906 181.84375 35.785156 L 181.84375 33.457031 L 183.5 33.457031 L 183.5 40.769531 C 183.5 41.082031 183.503906 41.359375 183.515625 41.597656 C 183.523438 41.839844 183.535156 42.027344 183.546875 42.160156 Z M 181.875 38.957031 C 181.875 38.542969 181.832031 38.199219 181.75 37.925781 C 181.675781 37.644531 181.570312 37.425781 181.4375 37.269531 C 181.3125 37.105469 181.164062 36.988281 181 36.925781 C 180.84375 36.855469 180.679688 36.816406 180.515625 36.816406 C 180.304688 36.816406 180.117188 36.859375 179.953125 36.941406 C 179.796875 37.027344 179.660156 37.15625 179.546875 37.332031 C 179.429688 37.511719 179.34375 37.734375 179.28125 38.003906 C 179.226562 38.277344 179.203125 38.605469 179.203125 38.988281 C 179.203125 40.425781 179.632812 41.144531 180.5 41.144531 C 180.664062 41.144531 180.832031 41.113281 181 41.050781 C 181.164062 40.980469 181.3125 40.859375 181.4375 40.691406 C 181.5625 40.527344 181.664062 40.300781 181.75 40.019531 C 181.832031 39.730469 181.875 39.375 181.875 38.957031 Z M 190.1875 40.300781 C 190.1875 40.613281 190.117188 40.890625 189.984375 41.128906 C 189.859375 41.371094 189.675781 41.578125 189.4375 41.753906 C 189.195312 41.921875 188.898438 42.050781 188.546875 42.144531 C 188.191406 42.238281 187.789062 42.285156 187.34375 42.285156 C 186.945312 42.285156 186.582031 42.253906 186.25 42.191406 C 185.925781 42.128906 185.640625 42.03125 185.390625 41.894531 C 185.148438 41.761719 184.945312 41.589844 184.78125 41.378906 C 184.625 41.160156 184.503906 40.894531 184.421875 40.582031 L 185.875 40.363281 C 185.914062 40.542969 185.976562 40.6875 186.0625 40.800781 C 186.144531 40.90625 186.242188 40.988281 186.359375 41.050781 C 186.484375 41.105469 186.625 41.140625 186.78125 41.160156 C 186.945312 41.183594 187.132812 41.191406 187.34375 41.191406 C 187.53125 41.191406 187.703125 41.183594 187.859375 41.160156 C 188.023438 41.140625 188.164062 41.105469 188.28125 41.050781 C 188.40625 40.988281 188.5 40.910156 188.5625 40.816406 C 188.632812 40.722656 188.671875 40.605469 188.671875 40.457031 C 188.671875 40.292969 188.625 40.160156 188.53125 40.066406 C 188.4375 39.972656 188.304688 39.894531 188.140625 39.832031 C 187.972656 39.769531 187.773438 39.71875 187.546875 39.675781 C 187.328125 39.636719 187.085938 39.582031 186.828125 39.519531 C 186.566406 39.46875 186.304688 39.402344 186.046875 39.316406 C 185.785156 39.234375 185.550781 39.125 185.34375 38.988281 C 185.144531 38.84375 184.984375 38.660156 184.859375 38.441406 C 184.734375 38.222656 184.671875 37.949219 184.671875 37.613281 C 184.671875 37.3125 184.726562 37.046875 184.84375 36.816406 C 184.96875 36.578125 185.140625 36.375 185.359375 36.207031 C 185.585938 36.042969 185.867188 35.917969 186.203125 35.832031 C 186.535156 35.738281 186.921875 35.691406 187.359375 35.691406 C 187.703125 35.691406 188.019531 35.730469 188.3125 35.800781 C 188.613281 35.863281 188.878906 35.964844 189.109375 36.097656 C 189.347656 36.234375 189.546875 36.410156 189.703125 36.628906 C 189.859375 36.847656 189.96875 37.109375 190.03125 37.410156 L 188.578125 37.566406 C 188.546875 37.410156 188.492188 37.285156 188.421875 37.191406 C 188.359375 37.089844 188.273438 37.011719 188.171875 36.957031 C 188.066406 36.894531 187.945312 36.855469 187.8125 36.832031 C 187.675781 36.800781 187.523438 36.785156 187.359375 36.785156 C 186.960938 36.785156 186.664062 36.839844 186.46875 36.941406 C 186.28125 37.046875 186.1875 37.214844 186.1875 37.441406 C 186.1875 37.589844 186.222656 37.703125 186.296875 37.785156 C 186.378906 37.871094 186.492188 37.941406 186.640625 38.003906 C 186.785156 38.058594 186.957031 38.105469 187.15625 38.144531 C 187.363281 38.1875 187.585938 38.238281 187.828125 38.300781 C 188.117188 38.363281 188.40625 38.4375 188.6875 38.519531 C 188.96875 38.605469 189.21875 38.71875 189.4375 38.863281 C 189.664062 39.011719 189.847656 39.199219 189.984375 39.425781 C 190.117188 39.65625 190.1875 39.949219 190.1875 40.300781 Z M 84 31.296875 "/>
<path style="fill-rule:nonzero;fill:rgb(39.215686%,90.980392%,23.529412%);fill-opacity:1;stroke-width:2;stroke-linecap:butt;stroke-linejoin:miter;stroke:rgb(100%,100%,100%);stroke-opacity:1;stroke-miterlimit:10;" d="M 201 32 L 241 32 L 241 44 L 201 44 Z M 201 32 "/>
<path style=" stroke:none;fill-rule:nonzero;fill:rgb(40%,40%,40%);fill-opacity:1;" d="M 254.65625 42.160156 L 254.65625 37.160156 C 254.65625 36.964844 254.65625 36.761719 254.65625 36.550781 C 254.664062 36.332031 254.675781 36.136719 254.6875 35.957031 C 254.695312 35.75 254.707031 35.550781 254.71875 35.363281 C 254.632812 35.667969 254.554688 35.957031 254.484375 36.238281 C 254.453125 36.355469 254.414062 36.472656 254.375 36.597656 C 254.34375 36.722656 254.3125 36.847656 254.28125 36.972656 C 254.25 37.089844 254.21875 37.199219 254.1875 37.300781 C 254.15625 37.394531 254.128906 37.480469 254.109375 37.550781 L 252.609375 42.160156 L 251.390625 42.160156 L 249.890625 37.550781 C 249.867188 37.480469 249.84375 37.394531 249.8125 37.300781 C 249.78125 37.199219 249.75 37.089844 249.71875 36.972656 C 249.6875 36.847656 249.648438 36.722656 249.609375 36.597656 C 249.578125 36.472656 249.546875 36.355469 249.515625 36.238281 C 249.429688 35.957031 249.347656 35.667969 249.265625 35.363281 C 249.273438 35.582031 249.285156 35.800781 249.296875 36.019531 C 249.304688 36.207031 249.316406 36.40625 249.328125 36.613281 C 249.335938 36.824219 249.34375 37.003906 249.34375 37.160156 L 249.34375 42.160156 L 247.796875 42.160156 L 247.796875 33.910156 L 250.125 33.910156 L 251.59375 38.519531 C 251.632812 38.644531 251.675781 38.796875 251.71875 38.972656 C 251.757812 39.140625 251.804688 39.308594 251.859375 39.472656 C 251.898438 39.671875 251.945312 39.871094 252 40.066406 C 252.0625 39.871094 252.113281 39.675781 252.15625 39.488281 C 252.1875 39.40625 252.210938 39.324219 252.234375 39.238281 C 252.253906 39.15625 252.273438 39.074219 252.296875 38.988281 C 252.328125 38.90625 252.351562 38.828125 252.375 38.753906 C 252.394531 38.683594 252.414062 38.613281 252.4375 38.550781 L 253.890625 33.910156 L 256.1875 33.910156 L 256.1875 42.160156 Z M 259.296875 42.285156 C 258.992188 42.285156 258.722656 42.242188 258.484375 42.160156 C 258.242188 42.066406 258.039062 41.941406 257.875 41.785156 C 257.707031 41.621094 257.578125 41.417969 257.484375 41.175781 C 257.398438 40.9375 257.359375 40.667969 257.359375 40.363281 C 257.359375 39.988281 257.421875 39.675781 257.546875 39.425781 C 257.679688 39.167969 257.859375 38.957031 258.078125 38.800781 C 258.304688 38.644531 258.570312 38.53125 258.875 38.457031 C 259.1875 38.386719 259.515625 38.34375 259.859375 38.332031 L 261.21875 38.316406 L 261.21875 37.988281 C 261.21875 37.761719 261.195312 37.574219 261.15625 37.425781 C 261.113281 37.269531 261.050781 37.144531 260.96875 37.050781 C 260.894531 36.949219 260.800781 36.875 260.6875 36.832031 C 260.570312 36.792969 260.441406 36.769531 260.296875 36.769531 C 260.160156 36.769531 260.035156 36.785156 259.921875 36.816406 C 259.816406 36.839844 259.722656 36.886719 259.640625 36.957031 C 259.566406 37.019531 259.503906 37.109375 259.453125 37.222656 C 259.410156 37.339844 259.378906 37.484375 259.359375 37.660156 L 257.640625 37.582031 C 257.679688 37.300781 257.765625 37.050781 257.890625 36.832031 C 258.015625 36.605469 258.1875 36.40625 258.40625 36.238281 C 258.632812 36.0625 258.910156 35.933594 259.234375 35.847656 C 259.554688 35.753906 259.929688 35.707031 260.359375 35.707031 C 260.753906 35.707031 261.101562 35.753906 261.40625 35.847656 C 261.71875 35.941406 261.984375 36.089844 262.203125 36.285156 C 262.421875 36.484375 262.582031 36.722656 262.6875 37.003906 C 262.800781 37.285156 262.859375 37.609375 262.859375 37.972656 L 262.859375 40.285156 C 262.859375 40.433594 262.863281 40.566406 262.875 40.691406 C 262.894531 40.808594 262.921875 40.90625 262.953125 40.988281 C 262.992188 41.0625 263.046875 41.121094 263.109375 41.160156 C 263.179688 41.203125 263.273438 41.222656 263.390625 41.222656 C 263.515625 41.222656 263.632812 41.214844 263.75 41.191406 L 263.75 42.082031 C 263.65625 42.105469 263.566406 42.125 263.484375 42.144531 C 263.410156 42.164062 263.332031 42.179688 263.25 42.191406 C 263.175781 42.199219 263.09375 42.210938 263 42.222656 C 262.914062 42.230469 262.816406 42.238281 262.703125 42.238281 C 262.285156 42.238281 261.976562 42.136719 261.78125 41.925781 C 261.582031 41.71875 261.460938 41.421875 261.421875 41.035156 L 261.390625 41.035156 C 261.171875 41.421875 260.890625 41.730469 260.546875 41.957031 C 260.203125 42.175781 259.785156 42.285156 259.296875 42.285156 Z M 261.21875 39.222656 L 260.375 39.238281 C 260.195312 39.25 260.03125 39.265625 259.875 39.285156 C 259.71875 39.308594 259.578125 39.355469 259.453125 39.425781 C 259.335938 39.488281 259.242188 39.589844 259.171875 39.722656 C 259.097656 39.847656 259.0625 40.019531 259.0625 40.238281 C 259.0625 40.542969 259.128906 40.765625 259.265625 40.910156 C 259.410156 41.058594 259.597656 41.128906 259.828125 41.128906 C 260.035156 41.128906 260.222656 41.089844 260.390625 41.003906 C 260.566406 40.910156 260.710938 40.792969 260.828125 40.644531 C 260.953125 40.5 261.046875 40.332031 261.109375 40.144531 C 261.179688 39.949219 261.21875 39.75 261.21875 39.550781 Z M 268.890625 42.160156 L 267.1875 39.285156 L 266.484375 39.785156 L 266.484375 42.160156 L 264.84375 42.160156 L 264.84375 33.457031 L 266.484375 33.457031 L 266.484375 38.441406 L 268.75 35.816406 L 270.515625 35.816406 L 268.296875 38.285156 L 270.6875 42.160156 Z M 271.84375 34.675781 L 271.84375 33.457031 L 273.484375 33.457031 L 273.484375 34.675781 Z M 271.84375 42.160156 L 271.84375 35.816406 L 273.484375 35.816406 L 273.484375 42.160156 Z M 278.953125 42.160156 L 278.953125 38.597656 C 278.953125 38.359375 278.929688 38.136719 278.890625 37.925781 C 278.847656 37.71875 278.78125 37.542969 278.6875 37.394531 C 278.601562 37.25 278.488281 37.136719 278.34375 37.050781 C 278.195312 36.96875 278.019531 36.925781 277.8125 36.925781 C 277.613281 36.925781 277.429688 36.972656 277.265625 37.066406 C 277.109375 37.152344 276.96875 37.277344 276.84375 37.441406 C 276.726562 37.597656 276.640625 37.792969 276.578125 38.019531 C 276.515625 38.25 276.484375 38.496094 276.484375 38.753906 L 276.484375 42.160156 L 274.84375 42.160156 L 274.84375 37.238281 C 274.84375 37.105469 274.835938 36.964844 274.828125 36.816406 C 274.828125 36.671875 274.820312 36.535156 274.8125 36.410156 C 274.8125 36.277344 274.804688 36.15625 274.796875 36.050781 C 274.796875 35.949219 274.796875 35.871094 274.796875 35.816406 L 276.359375 35.816406 C 276.367188 35.871094 276.375 35.949219 276.375 36.050781 C 276.382812 36.15625 276.394531 36.269531 276.40625 36.394531 C 276.414062 36.519531 276.421875 36.644531 276.421875 36.769531 C 276.429688 36.894531 276.4375 37 276.4375 37.082031 L 276.46875 37.082031 C 276.6875 36.59375 276.960938 36.238281 277.296875 36.019531 C 277.628906 35.800781 278.03125 35.691406 278.5 35.691406 C 278.882812 35.691406 279.207031 35.753906 279.46875 35.878906 C 279.726562 36.003906 279.941406 36.175781 280.109375 36.394531 C 280.273438 36.613281 280.394531 36.875 280.46875 37.175781 C 280.550781 37.46875 280.59375 37.785156 280.59375 38.128906 L 280.59375 42.160156 Z M 284.5 44.707031 C 284.070312 44.707031 283.695312 44.664062 283.375 44.582031 C 283.0625 44.496094 282.789062 44.378906 282.5625 44.222656 C 282.34375 44.074219 282.164062 43.898438 282.03125 43.691406 C 281.894531 43.480469 281.800781 43.253906 281.75 43.003906 L 283.40625 42.800781 C 283.457031 43.058594 283.582031 43.257812 283.78125 43.394531 C 283.976562 43.539062 284.234375 43.613281 284.546875 43.613281 C 284.734375 43.613281 284.90625 43.585938 285.0625 43.535156 C 285.226562 43.480469 285.367188 43.386719 285.484375 43.253906 C 285.609375 43.128906 285.703125 42.957031 285.765625 42.738281 C 285.828125 42.527344 285.859375 42.261719 285.859375 41.941406 C 285.859375 41.839844 285.859375 41.730469 285.859375 41.613281 C 285.859375 41.5 285.859375 41.394531 285.859375 41.300781 C 285.867188 41.1875 285.875 41.082031 285.875 40.988281 L 285.859375 40.988281 C 285.671875 41.394531 285.398438 41.691406 285.046875 41.878906 C 284.703125 42.058594 284.289062 42.144531 283.8125 42.144531 C 283.414062 42.144531 283.070312 42.066406 282.78125 41.910156 C 282.488281 41.753906 282.242188 41.535156 282.046875 41.253906 C 281.859375 40.964844 281.71875 40.625 281.625 40.238281 C 281.539062 39.84375 281.5 39.410156 281.5 38.941406 C 281.5 38.453125 281.546875 38.011719 281.640625 37.613281 C 281.734375 37.21875 281.878906 36.878906 282.078125 36.597656 C 282.285156 36.308594 282.539062 36.082031 282.84375 35.925781 C 283.15625 35.769531 283.519531 35.691406 283.9375 35.691406 C 284.363281 35.691406 284.742188 35.785156 285.078125 35.972656 C 285.410156 36.152344 285.671875 36.4375 285.859375 36.832031 L 285.890625 36.832031 C 285.890625 36.761719 285.890625 36.671875 285.890625 36.566406 C 285.898438 36.453125 285.90625 36.347656 285.90625 36.253906 C 285.914062 36.152344 285.925781 36.0625 285.9375 35.988281 C 285.945312 35.90625 285.957031 35.847656 285.96875 35.816406 L 287.53125 35.816406 C 287.519531 35.964844 287.507812 36.160156 287.5 36.410156 C 287.5 36.660156 287.5 36.953125 287.5 37.285156 L 287.5 41.972656 C 287.5 42.429688 287.429688 42.832031 287.296875 43.175781 C 287.160156 43.519531 286.960938 43.800781 286.703125 44.019531 C 286.453125 44.246094 286.140625 44.417969 285.765625 44.535156 C 285.390625 44.648438 284.96875 44.707031 284.5 44.707031 Z M 285.875 38.894531 C 285.875 38.5 285.832031 38.171875 285.75 37.910156 C 285.675781 37.640625 285.578125 37.425781 285.453125 37.269531 C 285.328125 37.105469 285.179688 36.988281 285.015625 36.925781 C 284.859375 36.863281 284.695312 36.832031 284.53125 36.832031 C 284.320312 36.832031 284.132812 36.875 283.96875 36.957031 C 283.800781 37.03125 283.660156 37.15625 283.546875 37.332031 C 283.441406 37.5 283.359375 37.71875 283.296875 37.988281 C 283.234375 38.25 283.203125 38.566406 283.203125 38.941406 C 283.203125 39.621094 283.3125 40.136719 283.53125 40.488281 C 283.75 40.832031 284.078125 41.003906 284.515625 41.003906 C 284.679688 41.003906 284.84375 40.972656 285 40.910156 C 285.164062 40.847656 285.3125 40.738281 285.4375 40.582031 C 285.570312 40.417969 285.675781 40.199219 285.75 39.925781 C 285.832031 39.65625 285.875 39.3125 285.875 38.894531 Z M 293.765625 36.925781 L 293.765625 42.160156 L 292.125 42.160156 L 292.125 36.925781 L 291.203125 36.925781 L 291.203125 35.816406 L 292.125 35.816406 L 292.125 35.160156 C 292.125 34.921875 292.15625 34.699219 292.21875 34.488281 C 292.28125 34.28125 292.378906 34.105469 292.515625 33.957031 C 292.660156 33.800781 292.847656 33.683594 293.078125 33.597656 C 293.316406 33.503906 293.617188 33.457031 293.984375 33.457031 C 294.171875 33.457031 294.351562 33.46875 294.53125 33.488281 C 294.707031 33.511719 294.867188 33.53125 295.015625 33.550781 L 295.015625 34.613281 C 294.953125 34.605469 294.875 34.59375 294.78125 34.582031 C 294.695312 34.574219 294.617188 34.566406 294.546875 34.566406 C 294.390625 34.566406 294.257812 34.582031 294.15625 34.613281 C 294.0625 34.644531 293.984375 34.691406 293.921875 34.753906 C 293.867188 34.816406 293.828125 34.894531 293.796875 34.988281 C 293.773438 35.082031 293.765625 35.191406 293.765625 35.316406 L 293.765625 35.816406 L 295.015625 35.816406 L 295.015625 36.925781 Z M 297.296875 42.285156 C 296.992188 42.285156 296.722656 42.242188 296.484375 42.160156 C 296.242188 42.066406 296.039062 41.941406 295.875 41.785156 C 295.707031 41.621094 295.578125 41.417969 295.484375 41.175781 C 295.398438 40.9375 295.359375 40.667969 295.359375 40.363281 C 295.359375 39.988281 295.421875 39.675781 295.546875 39.425781 C 295.679688 39.167969 295.859375 38.957031 296.078125 38.800781 C 296.304688 38.644531 296.570312 38.53125 296.875 38.457031 C 297.1875 38.386719 297.515625 38.34375 297.859375 38.332031 L 299.21875 38.316406 L 299.21875 37.988281 C 299.21875 37.761719 299.195312 37.574219 299.15625 37.425781 C 299.113281 37.269531 299.050781 37.144531 298.96875 37.050781 C 298.894531 36.949219 298.800781 36.875 298.6875 36.832031 C 298.570312 36.792969 298.441406 36.769531 298.296875 36.769531 C 298.160156 36.769531 298.035156 36.785156 297.921875 36.816406 C 297.816406 36.839844 297.722656 36.886719 297.640625 36.957031 C 297.566406 37.019531 297.503906 37.109375 297.453125 37.222656 C 297.410156 37.339844 297.378906 37.484375 297.359375 37.660156 L 295.640625 37.582031 C 295.679688 37.300781 295.765625 37.050781 295.890625 36.832031 C 296.015625 36.605469 296.1875 36.40625 296.40625 36.238281 C 296.632812 36.0625 296.910156 35.933594 297.234375 35.847656 C 297.554688 35.753906 297.929688 35.707031 298.359375 35.707031 C 298.753906 35.707031 299.101562 35.753906 299.40625 35.847656 C 299.71875 35.941406 299.984375 36.089844 300.203125 36.285156 C 300.421875 36.484375 300.582031 36.722656 300.6875 37.003906 C 300.800781 37.285156 300.859375 37.609375 300.859375 37.972656 L 300.859375 40.285156 C 300.859375 40.433594 300.863281 40.566406 300.875 40.691406 C 300.894531 40.808594 300.921875 40.90625 300.953125 40.988281 C 300.992188 41.0625 301.046875 41.121094 301.109375 41.160156 C 301.179688 41.203125 301.273438 41.222656 301.390625 41.222656 C 301.515625 41.222656 301.632812 41.214844 301.75 41.191406 L 301.75 42.082031 C 301.65625 42.105469 301.566406 42.125 301.484375 42.144531 C 301.410156 42.164062 301.332031 42.179688 301.25 42.191406 C 301.175781 42.199219 301.09375 42.210938 301 42.222656 C 300.914062 42.230469 300.816406 42.238281 300.703125 42.238281 C 300.285156 42.238281 299.976562 42.136719 299.78125 41.925781 C 299.582031 41.71875 299.460938 41.421875 299.421875 41.035156 L 299.390625 41.035156 C 299.171875 41.421875 298.890625 41.730469 298.546875 41.957031 C 298.203125 42.175781 297.785156 42.285156 297.296875 42.285156 Z M 299.21875 39.222656 L 298.375 39.238281 C 298.195312 39.25 298.03125 39.265625 297.875 39.285156 C 297.71875 39.308594 297.578125 39.355469 297.453125 39.425781 C 297.335938 39.488281 297.242188 39.589844 297.171875 39.722656 C 297.097656 39.847656 297.0625 40.019531 297.0625 40.238281 C 297.0625 40.542969 297.128906 40.765625 297.265625 40.910156 C 297.410156 41.058594 297.597656 41.128906 297.828125 41.128906 C 298.035156 41.128906 298.222656 41.089844 298.390625 41.003906 C 298.566406 40.910156 298.710938 40.792969 298.828125 40.644531 C 298.953125 40.5 299.046875 40.332031 299.109375 40.144531 C 299.179688 39.949219 299.21875 39.75 299.21875 39.550781 Z M 306.953125 42.160156 L 306.953125 38.597656 C 306.953125 38.359375 306.929688 38.136719 306.890625 37.925781 C 306.847656 37.71875 306.78125 37.542969 306.6875 37.394531 C 306.601562 37.25 306.488281 37.136719 306.34375 37.050781 C 306.195312 36.96875 306.019531 36.925781 305.8125 36.925781 C 305.613281 36.925781 305.429688 36.972656 305.265625 37.066406 C 305.109375 37.152344 304.96875 37.277344 304.84375 37.441406 C 304.726562 37.597656 304.640625 37.792969 304.578125 38.019531 C 304.515625 38.25 304.484375 38.496094 304.484375 38.753906 L 304.484375 42.160156 L 302.84375 42.160156 L 302.84375 37.238281 C 302.84375 37.105469 302.835938 36.964844 302.828125 36.816406 C 302.828125 36.671875 302.820312 36.535156 302.8125 36.410156 C 302.8125 36.277344 302.804688 36.15625 302.796875 36.050781 C 302.796875 35.949219 302.796875 35.871094 302.796875 35.816406 L 304.359375 35.816406 C 304.367188 35.871094 304.375 35.949219 304.375 36.050781 C 304.382812 36.15625 304.394531 36.269531 304.40625 36.394531 C 304.414062 36.519531 304.421875 36.644531 304.421875 36.769531 C 304.429688 36.894531 304.4375 37 304.4375 37.082031 L 304.46875 37.082031 C 304.6875 36.59375 304.960938 36.238281 305.296875 36.019531 C 305.628906 35.800781 306.03125 35.691406 306.5 35.691406 C 306.882812 35.691406 307.207031 35.753906 307.46875 35.878906 C 307.726562 36.003906 307.941406 36.175781 308.109375 36.394531 C 308.273438 36.613281 308.394531 36.875 308.46875 37.175781 C 308.550781 37.46875 308.59375 37.785156 308.59375 38.128906 L 308.59375 42.160156 Z M 312.484375 42.285156 C 311.972656 42.285156 311.53125 42.207031 311.15625 42.050781 C 310.78125 41.886719 310.46875 41.660156 310.21875 41.378906 C 309.96875 41.097656 309.78125 40.761719 309.65625 40.363281 C 309.53125 39.957031 309.46875 39.511719 309.46875 39.019531 C 309.46875 38.5 309.535156 38.035156 309.671875 37.628906 C 309.804688 37.214844 310.003906 36.863281 310.265625 36.582031 C 310.523438 36.292969 310.84375 36.074219 311.21875 35.925781 C 311.59375 35.78125 312.019531 35.707031 312.5 35.707031 C 312.914062 35.707031 313.28125 35.765625 313.59375 35.878906 C 313.914062 35.984375 314.191406 36.128906 314.421875 36.316406 C 314.648438 36.503906 314.832031 36.730469 314.96875 36.988281 C 315.113281 37.25 315.21875 37.527344 315.28125 37.816406 L 313.625 37.894531 C 313.570312 37.574219 313.453125 37.316406 313.265625 37.128906 C 313.078125 36.933594 312.8125 36.832031 312.46875 36.832031 C 312.03125 36.832031 311.707031 37.015625 311.5 37.378906 C 311.300781 37.746094 311.203125 38.269531 311.203125 38.957031 C 311.203125 40.417969 311.632812 41.144531 312.5 41.144531 C 312.8125 41.144531 313.070312 41.050781 313.28125 40.863281 C 313.488281 40.667969 313.617188 40.371094 313.671875 39.972656 L 315.328125 40.050781 C 315.285156 40.34375 315.191406 40.625 315.046875 40.894531 C 314.910156 41.15625 314.722656 41.390625 314.484375 41.597656 C 314.253906 41.808594 313.96875 41.972656 313.625 42.097656 C 313.289062 42.222656 312.910156 42.285156 312.484375 42.285156 Z M 319.421875 40.753906 L 320.890625 35.816406 L 322.609375 35.816406 L 320.109375 42.488281 C 319.785156 43.257812 319.457031 43.804688 319.125 44.128906 C 318.75 44.472656 318.257812 44.644531 317.65625 44.644531 C 317.257812 44.644531 316.914062 44.621094 316.625 44.582031 L 316.625 43.410156 C 316.832031 43.441406 317.019531 43.457031 317.1875 43.457031 C 317.351562 43.457031 317.5 43.433594 317.625 43.394531 C 317.75 43.363281 317.859375 43.304688 317.953125 43.222656 C 318.148438 43.054688 318.332031 42.773438 318.5 42.378906 L 318.609375 42.097656 L 316.09375 35.816406 L 317.828125 35.816406 Z M 330.953125 42.160156 C 330.941406 42.128906 330.929688 42.078125 330.921875 42.003906 C 330.910156 41.921875 330.898438 41.828125 330.890625 41.722656 C 330.878906 41.621094 330.867188 41.515625 330.859375 41.410156 C 330.859375 41.308594 330.859375 41.214844 330.859375 41.128906 L 330.828125 41.128906 C 330.640625 41.535156 330.375 41.832031 330.03125 42.019531 C 329.6875 42.195312 329.28125 42.285156 328.8125 42.285156 C 328.40625 42.285156 328.054688 42.199219 327.765625 42.035156 C 327.484375 41.871094 327.242188 41.640625 327.046875 41.347656 C 326.859375 41.058594 326.71875 40.714844 326.625 40.316406 C 326.539062 39.910156 326.5 39.46875 326.5 38.988281 C 326.5 38.511719 326.546875 38.074219 326.640625 37.675781 C 326.734375 37.269531 326.878906 36.921875 327.078125 36.628906 C 327.273438 36.339844 327.523438 36.113281 327.828125 35.957031 C 328.140625 35.792969 328.507812 35.707031 328.9375 35.707031 C 329.132812 35.707031 329.328125 35.730469 329.515625 35.769531 C 329.710938 35.8125 329.894531 35.878906 330.0625 35.972656 C 330.226562 36.058594 330.375 36.171875 330.5 36.316406 C 330.632812 36.453125 330.75 36.621094 330.84375 36.816406 L 330.859375 36.816406 C 330.859375 36.785156 330.859375 36.734375 330.859375 36.660156 C 330.859375 36.578125 330.859375 36.488281 330.859375 36.394531 C 330.859375 36.292969 330.851562 36.1875 330.84375 36.082031 C 330.84375 35.980469 330.84375 35.878906 330.84375 35.785156 L 330.84375 33.457031 L 332.5 33.457031 L 332.5 40.769531 C 332.5 41.082031 332.503906 41.359375 332.515625 41.597656 C 332.523438 41.839844 332.535156 42.027344 332.546875 42.160156 Z M 330.875 38.957031 C 330.875 38.542969 330.832031 38.199219 330.75 37.925781 C 330.675781 37.644531 330.570312 37.425781 330.4375 37.269531 C 330.3125 37.105469 330.164062 36.988281 330 36.925781 C 329.84375 36.855469 329.679688 36.816406 329.515625 36.816406 C 329.304688 36.816406 329.117188 36.859375 328.953125 36.941406 C 328.796875 37.027344 328.660156 37.15625 328.546875 37.332031 C 328.429688 37.511719 328.34375 37.734375 328.28125 38.003906 C 328.226562 38.277344 328.203125 38.605469 328.203125 38.988281 C 328.203125 40.425781 328.632812 41.144531 329.5 41.144531 C 329.664062 41.144531 329.832031 41.113281 330 41.050781 C 330.164062 40.980469 330.3125 40.859375 330.4375 40.691406 C 330.5625 40.527344 330.664062 40.300781 330.75 40.019531 C 330.832031 39.730469 330.875 39.375 330.875 38.957031 Z M 333.84375 42.160156 L 333.84375 37.300781 C 333.84375 37.167969 333.835938 37.027344 333.828125 36.878906 C 333.828125 36.722656 333.820312 36.578125 333.8125 36.441406 C 333.8125 36.296875 333.804688 36.171875 333.796875 36.066406 C 333.796875 35.953125 333.796875 35.871094 333.796875 35.816406 L 335.359375 35.816406 C 335.367188 35.871094 335.375 35.953125 335.375 36.066406 C 335.382812 36.183594 335.394531 36.308594 335.40625 36.441406 C 335.414062 36.578125 335.421875 36.714844 335.421875 36.847656 C 335.429688 36.984375 335.4375 37.09375 335.4375 37.175781 L 335.46875 37.175781 C 335.539062 36.949219 335.617188 36.746094 335.703125 36.566406 C 335.785156 36.378906 335.882812 36.222656 336 36.097656 C 336.113281 35.964844 336.25 35.863281 336.40625 35.800781 C 336.5625 35.730469 336.753906 35.691406 336.984375 35.691406 C 337.078125 35.691406 337.171875 35.703125 337.265625 35.722656 C 337.359375 35.746094 337.429688 35.765625 337.484375 35.785156 L 337.484375 37.160156 C 337.378906 37.140625 337.273438 37.121094 337.171875 37.097656 C 337.066406 37.078125 336.9375 37.066406 336.78125 37.066406 C 336.375 37.066406 336.054688 37.234375 335.828125 37.566406 C 335.597656 37.902344 335.484375 38.394531 335.484375 39.050781 L 335.484375 42.160156 Z M 338.84375 34.675781 L 338.84375 33.457031 L 340.484375 33.457031 L 340.484375 34.675781 Z M 338.84375 42.160156 L 338.84375 35.816406 L 340.484375 35.816406 L 340.484375 42.160156 Z M 345.953125 42.160156 L 345.953125 38.597656 C 345.953125 38.359375 345.929688 38.136719 345.890625 37.925781 C 345.847656 37.71875 345.78125 37.542969 345.6875 37.394531 C 345.601562 37.25 345.488281 37.136719 345.34375 37.050781 C 345.195312 36.96875 345.019531 36.925781 344.8125 36.925781 C 344.613281 36.925781 344.429688 36.972656 344.265625 37.066406 C 344.109375 37.152344 343.96875 37.277344 343.84375 37.441406 C 343.726562 37.597656 343.640625 37.792969 343.578125 38.019531 C 343.515625 38.25 343.484375 38.496094 343.484375 38.753906 L 343.484375 42.160156 L 341.84375 42.160156 L 341.84375 37.238281 C 341.84375 37.105469 341.835938 36.964844 341.828125 36.816406 C 341.828125 36.671875 341.820312 36.535156 341.8125 36.410156 C 341.8125 36.277344 341.804688 36.15625 341.796875 36.050781 C 341.796875 35.949219 341.796875 35.871094 341.796875 35.816406 L 343.359375 35.816406 C 343.367188 35.871094 343.375 35.949219 343.375 36.050781 C 343.382812 36.15625 343.394531 36.269531 343.40625 36.394531 C 343.414062 36.519531 343.421875 36.644531 343.421875 36.769531 C 343.429688 36.894531 343.4375 37 343.4375 37.082031 L 343.46875 37.082031 C 343.6875 36.59375 343.960938 36.238281 344.296875 36.019531 C 344.628906 35.800781 345.03125 35.691406 345.5 35.691406 C 345.882812 35.691406 346.207031 35.753906 346.46875 35.878906 C 346.726562 36.003906 346.941406 36.175781 347.109375 36.394531 C 347.273438 36.613281 347.394531 36.875 347.46875 37.175781 C 347.550781 37.46875 347.59375 37.785156 347.59375 38.128906 L 347.59375 42.160156 Z M 352.890625 42.160156 L 351.1875 39.285156 L 350.484375 39.785156 L 350.484375 42.160156 L 348.84375 42.160156 L 348.84375 33.457031 L 350.484375 33.457031 L 350.484375 38.441406 L 352.75 35.816406 L 354.515625 35.816406 L 352.296875 38.285156 L 354.6875 42.160156 Z M 361.1875 40.300781 C 361.1875 40.613281 361.117188 40.890625 360.984375 41.128906 C 360.859375 41.371094 360.675781 41.578125 360.4375 41.753906 C 360.195312 41.921875 359.898438 42.050781 359.546875 42.144531 C 359.191406 42.238281 358.789062 42.285156 358.34375 42.285156 C 357.945312 42.285156 357.582031 42.253906 357.25 42.191406 C 356.925781 42.128906 356.640625 42.03125 356.390625 41.894531 C 356.148438 41.761719 355.945312 41.589844 355.78125 41.378906 C 355.625 41.160156 355.503906 40.894531 355.421875 40.582031 L 356.875 40.363281 C 356.914062 40.542969 356.976562 40.6875 357.0625 40.800781 C 357.144531 40.90625 357.242188 40.988281 357.359375 41.050781 C 357.484375 41.105469 357.625 41.140625 357.78125 41.160156 C 357.945312 41.183594 358.132812 41.191406 358.34375 41.191406 C 358.53125 41.191406 358.703125 41.183594 358.859375 41.160156 C 359.023438 41.140625 359.164062 41.105469 359.28125 41.050781 C 359.40625 40.988281 359.5 40.910156 359.5625 40.816406 C 359.632812 40.722656 359.671875 40.605469 359.671875 40.457031 C 359.671875 40.292969 359.625 40.160156 359.53125 40.066406 C 359.4375 39.972656 359.304688 39.894531 359.140625 39.832031 C 358.972656 39.769531 358.773438 39.71875 358.546875 39.675781 C 358.328125 39.636719 358.085938 39.582031 357.828125 39.519531 C 357.566406 39.46875 357.304688 39.402344 357.046875 39.316406 C 356.785156 39.234375 356.550781 39.125 356.34375 38.988281 C 356.144531 38.84375 355.984375 38.660156 355.859375 38.441406 C 355.734375 38.222656 355.671875 37.949219 355.671875 37.613281 C 355.671875 37.3125 355.726562 37.046875 355.84375 36.816406 C 355.96875 36.578125 356.140625 36.375 356.359375 36.207031 C 356.585938 36.042969 356.867188 35.917969 357.203125 35.832031 C 357.535156 35.738281 357.921875 35.691406 358.359375 35.691406 C 358.703125 35.691406 359.019531 35.730469 359.3125 35.800781 C 359.613281 35.863281 359.878906 35.964844 360.109375 36.097656 C 360.347656 36.234375 360.546875 36.410156 360.703125 36.628906 C 360.859375 36.847656 360.96875 37.109375 361.03125 37.410156 L 359.578125 37.566406 C 359.546875 37.410156 359.492188 37.285156 359.421875 37.191406 C 359.359375 37.089844 359.273438 37.011719 359.171875 36.957031 C 359.066406 36.894531 358.945312 36.855469 358.8125 36.832031 C 358.675781 36.800781 358.523438 36.785156 358.359375 36.785156 C 357.960938 36.785156 357.664062 36.839844 357.46875 36.941406 C 357.28125 37.046875 357.1875 37.214844 357.1875 37.441406 C 357.1875 37.589844 357.222656 37.703125 357.296875 37.785156 C 357.378906 37.871094 357.492188 37.941406 357.640625 38.003906 C 357.785156 38.058594 357.957031 38.105469 358.15625 38.144531 C 358.363281 38.1875 358.585938 38.238281 358.828125 38.300781 C 359.117188 38.363281 359.40625 38.4375 359.6875 38.519531 C 359.96875 38.605469 360.21875 38.71875 360.4375 38.863281 C 360.664062 39.011719 360.847656 39.199219 360.984375 39.425781 C 361.117188 39.65625 361.1875 39.949219 361.1875 40.300781 Z M 247 31.296875 "/>
<path style="fill-rule:nonzero;fill:rgb(96.078431%,82.352941%,28.235294%);fill-opacity:1;stroke-width:2;stroke-linecap:butt;stroke-linejoin:bevel;stroke:rgb(100%,100%,100%);stroke-opacity:1;stroke-miterlimit:10;" d="M 200 55 C 248.648438 55 292.644531 83.902344 311.964844 128.546875 C 331.285156 173.195312 322.234375 225.050781 288.933594 260.515625 L 200 177 Z M 200 55 "/>
<path style="fill-rule:nonzero;fill:rgb(89.019608%,54.509804%,51.764706%);fill-opacity:1;stroke-width:2;stroke-linecap:butt;stroke-linejoin:bevel;stroke:rgb(100%,100%,100%);stroke-opacity:1;stroke-miterlimit:10;" d="M 288.933594 260.515625 C 242.808594 309.632812 165.601562 312.058594 116.484375 265.933594 L 200 177 Z M 288.933594 260.515625 "/>
<path style="fill-rule:nonzero;fill:rgb(12.54902%,36.862745%,44.313725%);fill-opacity:1;stroke-width:2;stroke-linecap:butt;stroke-linejoin:bevel;stroke:rgb(100%,100%,100%);stroke-opacity:1;stroke-miterlimit:10;" d="M 116.484375 265.933594 C 89.980469 241.042969 75.957031 205.628906 78.242188 169.339844 C 80.523438 133.050781 98.875 99.671875 128.289062 78.300781 L 200 177 Z M 116.484375 265.933594 "/>
<path style="fill-rule:nonzero;fill:rgb(39.215686%,90.980392%,23.529412%);fill-opacity:1;stroke-width:2;stroke-linecap:butt;stroke-linejoin:bevel;stroke:rgb(100%,100%,100%);stroke-opacity:1;stroke-miterlimit:10;" d="M 128.289062 78.300781 C 149.132812 63.15625 174.234375 55 200 55 L 200 177 Z M 128.289062 78.300781 "/>
</g>
</svg>
